solid OpenSCAD_Model
  facet normal -1 0 -2.22045e-16
    outer loop
      vertex -30 0 12.71
      vertex -30 2.13057 12.4861
      vertex -30 -2.13057 12.4861
    endloop
  endfacet
  facet normal -1 0 -2.22045e-16
    outer loop
      vertex -30 -2.13057 12.4861
      vertex -30 2.13057 12.4861
      vertex -30 4.16803 11.8241
    endloop
  endfacet
  facet normal -1 0 -2.22045e-16
    outer loop
      vertex -30 -2.13057 12.4861
      vertex -30 4.16803 11.8241
      vertex -30 6.02333 10.7529
    endloop
  endfacet
  facet normal -1 0 -2.22045e-16
    outer loop
      vertex -30 -2.13057 12.4861
      vertex -30 6.02333 10.7529
      vertex -30 7.61538 9.31942
    endloop
  endfacet
  facet normal -1 0 -2.22045e-16
    outer loop
      vertex -30 -2.13057 12.4861
      vertex -30 7.61538 9.31942
      vertex -30 8.87459 7.58625
    endloop
  endfacet
  facet normal -1 0 -2.22045e-16
    outer loop
      vertex -30 5.4691 8.63584
      vertex -30 8.87459 7.58625
      vertex -30 9.74595 5.62915
    endloop
  endfacet
  facet normal -1 0 -2.22045e-16
    outer loop
      vertex -30 7.71155 5.3871
      vertex -30 9.74595 5.62915
      vertex -30 10.1914 3.53365
    endloop
  endfacet
  facet normal -1 0 -2.22045e-16
    outer loop
      vertex -30 8.18737 3.45663
      vertex -30 10.1914 3.53365
      vertex -30 10.1914 1.39135
    endloop
  endfacet
  facet normal -1 0 -2.22045e-16
    outer loop
      vertex -30 8.18737 1.46837
      vertex -30 10.1914 1.39135
      vertex -30 9.74595 -0.704152
    endloop
  endfacet
  facet normal -1 0 -2.22045e-16
    outer loop
      vertex -30 7.71155 -0.462104
      vertex -30 9.74595 -0.704152
      vertex -30 8.87459 -2.66125
    endloop
  endfacet
  facet normal -1 0 -2.22045e-16
    outer loop
      vertex -30 6.78756 -2.22261
      vertex -30 8.87459 -2.66125
      vertex -30 7.61538 -4.39442
    endloop
  endfacet
  facet normal -1 0 -2.22045e-16
    outer loop
      vertex -30 5.4691 -3.71084
      vertex -30 7.61538 -4.39442
      vertex -30 6.02333 -5.8279
    endloop
  endfacet
  facet normal -1 0 -2.22045e-16
    outer loop
      vertex -30 3.8328 -4.8403
      vertex -30 6.02333 -5.8279
      vertex -30 4.16803 -6.89906
    endloop
  endfacet
  facet normal -1 0 -2.22045e-16
    outer loop
      vertex -30 1.97376 -5.54534
      vertex -30 4.16803 -6.89906
      vertex -30 2.13057 -7.56107
    endloop
  endfacet
  facet normal -1 0 -2.22045e-16
    outer loop
      vertex -30 0 -5.785
      vertex -30 2.13057 -7.56107
      vertex -30 0 -7.785
    endloop
  endfacet
  facet normal -1 0 -2.22045e-16
    outer loop
      vertex -30 -1.97376 -5.54534
      vertex -30 0 -7.785
      vertex -30 -2.13057 -7.56107
    endloop
  endfacet
  facet normal -1 0 -2.22045e-16
    outer loop
      vertex -30 -3.8328 -4.8403
      vertex -30 -2.13057 -7.56107
      vertex -30 -4.16803 -6.89906
    endloop
  endfacet
  facet normal -1 0 -2.22045e-16
    outer loop
      vertex -30 -5.4691 -3.71084
      vertex -30 -4.16803 -6.89906
      vertex -30 -6.02333 -5.8279
    endloop
  endfacet
  facet normal -1 0 -2.22045e-16
    outer loop
      vertex -30 -6.78756 -2.22261
      vertex -30 -6.02333 -5.8279
      vertex -30 -7.61538 -4.39442
    endloop
  endfacet
  facet normal -1 0 -2.22045e-16
    outer loop
      vertex -30 -7.71155 -0.462104
      vertex -30 -7.61538 -4.39442
      vertex -30 -8.87459 -2.66125
    endloop
  endfacet
  facet normal -1 0 -2.22045e-16
    outer loop
      vertex -30 -8.18737 1.46837
      vertex -30 -8.87459 -2.66125
      vertex -30 -9.74595 -0.704152
    endloop
  endfacet
  facet normal -1 0 -2.22045e-16
    outer loop
      vertex -30 -8.18737 3.45663
      vertex -30 -9.74595 -0.704152
      vertex -30 -10.1914 1.39135
    endloop
  endfacet
  facet normal -1 0 -2.22045e-16
    outer loop
      vertex -30 -6.78756 7.14761
      vertex -30 -10.1914 1.39135
      vertex -30 -10.1914 3.53365
    endloop
  endfacet
  facet normal -1 0 -2.22045e-16
    outer loop
      vertex -30 -2.13057 12.4861
      vertex -30 -10.1914 3.53365
      vertex -30 -9.74595 5.62915
    endloop
  endfacet
  facet normal -1 0 -2.22045e-16
    outer loop
      vertex -30 -2.13057 12.4861
      vertex -30 -9.74595 5.62915
      vertex -30 -8.87459 7.58625
    endloop
  endfacet
  facet normal -1 0 -2.22045e-16
    outer loop
      vertex -30 -2.13057 12.4861
      vertex -30 -8.87459 7.58625
      vertex -30 -7.61538 9.31942
    endloop
  endfacet
  facet normal -1 0 -2.22045e-16
    outer loop
      vertex -30 -2.13057 12.4861
      vertex -30 -7.61538 9.31942
      vertex -30 -6.02333 10.7529
    endloop
  endfacet
  facet normal -1 0 -2.22045e-16
    outer loop
      vertex -30 -2.13057 12.4861
      vertex -30 -6.02333 10.7529
      vertex -30 -4.16803 11.8241
    endloop
  endfacet
  facet normal -1 0 -2.22045e-16
    outer loop
      vertex -30 -1.97376 10.4703
      vertex -30 -2.13057 12.4861
      vertex -30 0 10.71
    endloop
  endfacet
  facet normal -1 0 -2.22045e-16
    outer loop
      vertex -30 -3.8328 9.7653
      vertex -30 -2.13057 12.4861
      vertex -30 -1.97376 10.4703
    endloop
  endfacet
  facet normal -1 0 -2.22045e-16
    outer loop
      vertex -30 -5.4691 8.63584
      vertex -30 -2.13057 12.4861
      vertex -30 -3.8328 9.7653
    endloop
  endfacet
  facet normal -1 0 -2.22045e-16
    outer loop
      vertex -30 -8.18737 3.45663
      vertex -30 -10.1914 1.39135
      vertex -30 -7.71155 5.3871
    endloop
  endfacet
  facet normal -1 0 -2.22045e-16
    outer loop
      vertex -30 -2.13057 12.4861
      vertex -30 -5.4691 8.63584
      vertex -30 -10.1914 3.53365
    endloop
  endfacet
  facet normal -1 0 -2.22045e-16
    outer loop
      vertex -30 -7.71155 5.3871
      vertex -30 -10.1914 1.39135
      vertex -30 -6.78756 7.14761
    endloop
  endfacet
  facet normal -1 0 -2.22045e-16
    outer loop
      vertex -30 -5.4691 8.63584
      vertex -30 -6.78756 7.14761
      vertex -30 -10.1914 3.53365
    endloop
  endfacet
  facet normal -1 0 -2.22045e-16
    outer loop
      vertex -30 -8.18737 1.46837
      vertex -30 -9.74595 -0.704152
      vertex -30 -8.18737 3.45663
    endloop
  endfacet
  facet normal -1 0 -2.22045e-16
    outer loop
      vertex -30 0 -5.785
      vertex -30 0 -7.785
      vertex -30 -1.97376 -5.54534
    endloop
  endfacet
  facet normal -1 0 -2.22045e-16
    outer loop
      vertex -30 -1.97376 -5.54534
      vertex -30 -2.13057 -7.56107
      vertex -30 -3.8328 -4.8403
    endloop
  endfacet
  facet normal -1 0 -2.22045e-16
    outer loop
      vertex -30 -3.8328 -4.8403
      vertex -30 -4.16803 -6.89906
      vertex -30 -5.4691 -3.71084
    endloop
  endfacet
  facet normal -1 0 -2.22045e-16
    outer loop
      vertex -30 -5.4691 -3.71084
      vertex -30 -6.02333 -5.8279
      vertex -30 -6.78756 -2.22261
    endloop
  endfacet
  facet normal -1 0 -2.22045e-16
    outer loop
      vertex -30 -6.78756 -2.22261
      vertex -30 -7.61538 -4.39442
      vertex -30 -7.71155 -0.462104
    endloop
  endfacet
  facet normal -1 0 -2.22045e-16
    outer loop
      vertex -30 -7.71155 -0.462104
      vertex -30 -8.87459 -2.66125
      vertex -30 -8.18737 1.46837
    endloop
  endfacet
  facet normal -1 0 -2.22045e-16
    outer loop
      vertex -30 7.71155 5.3871
      vertex -30 10.1914 3.53365
      vertex -30 8.18737 3.45663
    endloop
  endfacet
  facet normal -1 0 -2.22045e-16
    outer loop
      vertex -30 6.78756 7.14761
      vertex -30 9.74595 5.62915
      vertex -30 7.71155 5.3871
    endloop
  endfacet
  facet normal -1 0 -2.22045e-16
    outer loop
      vertex -30 8.18737 3.45663
      vertex -30 10.1914 1.39135
      vertex -30 8.18737 1.46837
    endloop
  endfacet
  facet normal -1 0 -2.22045e-16
    outer loop
      vertex -30 3.8328 9.7653
      vertex -30 8.87459 7.58625
      vertex -30 5.4691 8.63584
    endloop
  endfacet
  facet normal -1 0 -2.22045e-16
    outer loop
      vertex -30 8.18737 1.46837
      vertex -30 9.74595 -0.704152
      vertex -30 7.71155 -0.462104
    endloop
  endfacet
  facet normal -1 0 -2.22045e-16
    outer loop
      vertex -30 -2.13057 12.4861
      vertex -30 8.87459 7.58625
      vertex -30 3.8328 9.7653
    endloop
  endfacet
  facet normal -1 0 -2.22045e-16
    outer loop
      vertex -30 -2.13057 12.4861
      vertex -30 3.8328 9.7653
      vertex -30 1.97376 10.4703
    endloop
  endfacet
  facet normal -1 0 -2.22045e-16
    outer loop
      vertex -30 0 10.71
      vertex -30 -2.13057 12.4861
      vertex -30 1.97376 10.4703
    endloop
  endfacet
  facet normal -1 0 -2.22045e-16
    outer loop
      vertex -30 5.4691 8.63584
      vertex -30 9.74595 5.62915
      vertex -30 6.78756 7.14761
    endloop
  endfacet
  facet normal -1 0 -2.22045e-16
    outer loop
      vertex -30 7.71155 -0.462104
      vertex -30 8.87459 -2.66125
      vertex -30 6.78756 -2.22261
    endloop
  endfacet
  facet normal -1 0 -2.22045e-16
    outer loop
      vertex -30 6.78756 -2.22261
      vertex -30 7.61538 -4.39442
      vertex -30 5.4691 -3.71084
    endloop
  endfacet
  facet normal -1 0 -2.22045e-16
    outer loop
      vertex -30 5.4691 -3.71084
      vertex -30 6.02333 -5.8279
      vertex -30 3.8328 -4.8403
    endloop
  endfacet
  facet normal -1 0 -2.22045e-16
    outer loop
      vertex -30 3.8328 -4.8403
      vertex -30 4.16803 -6.89906
      vertex -30 1.97376 -5.54534
    endloop
  endfacet
  facet normal -1 0 -2.22045e-16
    outer loop
      vertex -30 1.97376 -5.54534
      vertex -30 2.13057 -7.56107
      vertex -30 0 -5.785
    endloop
  endfacet
  facet normal -2.20828e-16 0.104528 0.994522
    outer loop
      vertex -30 2.13057 12.4861
      vertex -30 0 12.71
      vertex -6 0 12.71
    endloop
  endfacet
  facet normal -2.20828e-16 0.104528 0.994522
    outer loop
      vertex -6 2.13057 12.4861
      vertex -30 2.13057 12.4861
      vertex -6 0 12.71
    endloop
  endfacet
  facet normal -2.20828e-16 -0.104528 0.994522
    outer loop
      vertex -6 0 12.71
      vertex -30 0 12.71
      vertex -30 -2.13057 12.4861
    endloop
  endfacet
  facet normal -2.20828e-16 -0.104528 0.994522
    outer loop
      vertex -6 -2.13057 12.4861
      vertex -6 0 12.71
      vertex -30 -2.13057 12.4861
    endloop
  endfacet
  facet normal -2.11177e-16 -0.309017 0.951056
    outer loop
      vertex -6 -2.13057 12.4861
      vertex -30 -2.13057 12.4861
      vertex -30 -4.16803 11.8241
    endloop
  endfacet
  facet normal -2.11177e-16 -0.309017 0.951056
    outer loop
      vertex -6 -4.16803 11.8241
      vertex -6 -2.13057 12.4861
      vertex -30 -4.16803 11.8241
    endloop
  endfacet
  facet normal -1.92296e-16 -0.5 0.866025
    outer loop
      vertex -6 -4.16803 11.8241
      vertex -30 -4.16803 11.8241
      vertex -30 -6.02333 10.7529
    endloop
  endfacet
  facet normal -1.92296e-16 -0.5 0.866025
    outer loop
      vertex -6 -6.02333 10.7529
      vertex -6 -4.16803 11.8241
      vertex -30 -6.02333 10.7529
    endloop
  endfacet
  facet normal -1.65011e-16 -0.66913 0.743145
    outer loop
      vertex -6 -6.02333 10.7529
      vertex -30 -6.02333 10.7529
      vertex -30 -7.61538 9.31942
    endloop
  endfacet
  facet normal -1.65011e-16 -0.66913 0.743145
    outer loop
      vertex -6 -7.61538 9.31942
      vertex -6 -6.02333 10.7529
      vertex -30 -7.61538 9.31942
    endloop
  endfacet
  facet normal -1.30514e-16 -0.809017 0.587785
    outer loop
      vertex -6 -7.61538 9.31942
      vertex -30 -7.61538 9.31942
      vertex -30 -8.87459 7.58625
    endloop
  endfacet
  facet normal -1.30514e-16 -0.809017 0.587785
    outer loop
      vertex -6 -8.87459 7.58625
      vertex -6 -7.61538 9.31942
      vertex -30 -8.87459 7.58625
    endloop
  endfacet
  facet normal -9.03137e-17 -0.913545 0.406737
    outer loop
      vertex -6 -8.87459 7.58625
      vertex -30 -8.87459 7.58625
      vertex -30 -9.74595 5.62915
    endloop
  endfacet
  facet normal -9.03137e-17 -0.913545 0.406737
    outer loop
      vertex -6 -9.74595 5.62915
      vertex -6 -8.87459 7.58625
      vertex -30 -9.74595 5.62915
    endloop
  endfacet
  facet normal -4.61656e-17 -0.978148 0.207911
    outer loop
      vertex -6 -9.74595 5.62915
      vertex -30 -9.74595 5.62915
      vertex -30 -10.1914 3.53365
    endloop
  endfacet
  facet normal -4.61656e-17 -0.978148 0.207911
    outer loop
      vertex -6 -10.1914 3.53366
      vertex -6 -9.74595 5.62915
      vertex -30 -10.1914 3.53365
    endloop
  endfacet
  facet normal 0 -1 0
    outer loop
      vertex -6 -10.1914 3.53366
      vertex -30 -10.1914 3.53365
      vertex -30 -10.1914 1.39135
    endloop
  endfacet
  facet normal 0 -1 0
    outer loop
      vertex -6 -10.1914 2.4625
      vertex -6 -10.1914 3.53366
      vertex -6 -10.1914 1.39135
    endloop
  endfacet
  facet normal 0 -1 0
    outer loop
      vertex -6 -10.1914 1.39135
      vertex -6 -10.1914 3.53366
      vertex -30 -10.1914 1.39135
    endloop
  endfacet
  facet normal 4.61656e-17 -0.978148 -0.207911
    outer loop
      vertex -6 -10.1914 1.39135
      vertex -30 -10.1914 1.39135
      vertex -30 -9.74595 -0.704152
    endloop
  endfacet
  facet normal 4.61656e-17 -0.978148 -0.207911
    outer loop
      vertex -6 -9.74595 -0.704152
      vertex -6 -10.1914 1.39135
      vertex -30 -9.74595 -0.704152
    endloop
  endfacet
  facet normal 9.03137e-17 -0.913545 -0.406737
    outer loop
      vertex -6 -9.74595 -0.704152
      vertex -30 -9.74595 -0.704152
      vertex -30 -8.87459 -2.66125
    endloop
  endfacet
  facet normal 9.03137e-17 -0.913545 -0.406737
    outer loop
      vertex -6 -8.87459 -2.66125
      vertex -6 -9.74595 -0.704152
      vertex -30 -8.87459 -2.66125
    endloop
  endfacet
  facet normal 1.30514e-16 -0.809017 -0.587785
    outer loop
      vertex -6 -8.87459 -2.66125
      vertex -30 -8.87459 -2.66125
      vertex -30 -7.61538 -4.39442
    endloop
  endfacet
  facet normal 1.30514e-16 -0.809017 -0.587785
    outer loop
      vertex -6 -7.61538 -4.39442
      vertex -6 -8.87459 -2.66125
      vertex -30 -7.61538 -4.39442
    endloop
  endfacet
  facet normal 1.65011e-16 -0.66913 -0.743145
    outer loop
      vertex -30 -7.61538 -4.39442
      vertex -30 -6.02333 -5.8279
      vertex -6 -7.61538 -4.39442
    endloop
  endfacet
  facet normal 1.65011e-16 -0.66913 -0.743145
    outer loop
      vertex -6 -7.61538 -4.39442
      vertex -30 -6.02333 -5.8279
      vertex -6 -6.02333 -5.8279
    endloop
  endfacet
  facet normal 1.92296e-16 -0.5 -0.866025
    outer loop
      vertex -30 -6.02333 -5.8279
      vertex -30 -4.16803 -6.89906
      vertex -6 -6.02333 -5.8279
    endloop
  endfacet
  facet normal 1.92296e-16 -0.5 -0.866025
    outer loop
      vertex -6 -6.02333 -5.8279
      vertex -30 -4.16803 -6.89906
      vertex -6 -4.16803 -6.89906
    endloop
  endfacet
  facet normal 2.11177e-16 -0.309017 -0.951056
    outer loop
      vertex -30 -4.16803 -6.89906
      vertex -30 -2.13057 -7.56107
      vertex -6 -4.16803 -6.89906
    endloop
  endfacet
  facet normal 2.11177e-16 -0.309017 -0.951056
    outer loop
      vertex -6 -4.16803 -6.89906
      vertex -30 -2.13057 -7.56107
      vertex -6 -2.13057 -7.56107
    endloop
  endfacet
  facet normal 2.20828e-16 -0.104528 -0.994522
    outer loop
      vertex -30 -2.13057 -7.56107
      vertex -30 0 -7.785
      vertex -6 -2.13057 -7.56107
    endloop
  endfacet
  facet normal 2.20828e-16 -0.104528 -0.994522
    outer loop
      vertex -6 -2.13057 -7.56107
      vertex -30 0 -7.785
      vertex -6 0 -7.785
    endloop
  endfacet
  facet normal 2.20828e-16 0.104528 -0.994522
    outer loop
      vertex -30 2.13057 -7.56107
      vertex -6 2.13057 -7.56107
      vertex -30 0 -7.785
    endloop
  endfacet
  facet normal 2.20828e-16 0.104528 -0.994522
    outer loop
      vertex -30 0 -7.785
      vertex -6 2.13057 -7.56107
      vertex -6 0 -7.785
    endloop
  endfacet
  facet normal 2.11177e-16 0.309017 -0.951056
    outer loop
      vertex -30 4.16803 -6.89906
      vertex -6 4.16803 -6.89906
      vertex -30 2.13057 -7.56107
    endloop
  endfacet
  facet normal 2.11177e-16 0.309017 -0.951056
    outer loop
      vertex -30 2.13057 -7.56107
      vertex -6 4.16803 -6.89906
      vertex -6 2.13057 -7.56107
    endloop
  endfacet
  facet normal 1.92296e-16 0.5 -0.866025
    outer loop
      vertex -30 6.02333 -5.8279
      vertex -6 6.02333 -5.8279
      vertex -30 4.16803 -6.89906
    endloop
  endfacet
  facet normal 1.92296e-16 0.5 -0.866025
    outer loop
      vertex -30 4.16803 -6.89906
      vertex -6 6.02333 -5.8279
      vertex -6 4.16803 -6.89906
    endloop
  endfacet
  facet normal 1.65011e-16 0.66913 -0.743145
    outer loop
      vertex -30 7.61538 -4.39442
      vertex -6 7.61538 -4.39442
      vertex -30 6.02333 -5.8279
    endloop
  endfacet
  facet normal 1.65011e-16 0.66913 -0.743145
    outer loop
      vertex -30 6.02333 -5.8279
      vertex -6 7.61538 -4.39442
      vertex -6 6.02333 -5.8279
    endloop
  endfacet
  facet normal 1.30514e-16 0.809017 -0.587785
    outer loop
      vertex -30 8.87459 -2.66125
      vertex -6 8.87459 -2.66125
      vertex -30 7.61538 -4.39442
    endloop
  endfacet
  facet normal 1.30514e-16 0.809017 -0.587785
    outer loop
      vertex -30 7.61538 -4.39442
      vertex -6 8.87459 -2.66125
      vertex -6 7.61538 -4.39442
    endloop
  endfacet
  facet normal 9.03137e-17 0.913545 -0.406737
    outer loop
      vertex -30 9.74595 -0.704152
      vertex -6 9.74595 -0.704152
      vertex -30 8.87459 -2.66125
    endloop
  endfacet
  facet normal 9.03137e-17 0.913545 -0.406737
    outer loop
      vertex -30 8.87459 -2.66125
      vertex -6 9.74595 -0.704152
      vertex -6 8.87459 -2.66125
    endloop
  endfacet
  facet normal 4.61656e-17 0.978148 -0.207911
    outer loop
      vertex -30 10.1914 1.39135
      vertex -6 10.1914 1.39135
      vertex -30 9.74595 -0.704152
    endloop
  endfacet
  facet normal 4.61656e-17 0.978148 -0.207911
    outer loop
      vertex -30 9.74595 -0.704152
      vertex -6 10.1914 1.39135
      vertex -6 9.74595 -0.704152
    endloop
  endfacet
  facet normal 0 1 0
    outer loop
      vertex -30 10.1914 3.53365
      vertex -6 10.1914 3.53366
      vertex -30 10.1914 1.39135
    endloop
  endfacet
  facet normal 0 1 0
    outer loop
      vertex -30 10.1914 1.39135
      vertex -6 10.1914 3.53366
      vertex -6 10.1914 2.4625
    endloop
  endfacet
  facet normal 0 1 0
    outer loop
      vertex -30 10.1914 1.39135
      vertex -6 10.1914 2.4625
      vertex -6 10.1914 1.39135
    endloop
  endfacet
  facet normal -4.61656e-17 0.978148 0.207911
    outer loop
      vertex -30 9.74595 5.62915
      vertex -6 9.74595 5.62915
      vertex -30 10.1914 3.53365
    endloop
  endfacet
  facet normal -4.61656e-17 0.978148 0.207911
    outer loop
      vertex -30 10.1914 3.53365
      vertex -6 9.74595 5.62915
      vertex -6 10.1914 3.53366
    endloop
  endfacet
  facet normal -9.03137e-17 0.913545 0.406737
    outer loop
      vertex -30 8.87459 7.58625
      vertex -6 8.87459 7.58625
      vertex -30 9.74595 5.62915
    endloop
  endfacet
  facet normal -9.03137e-17 0.913545 0.406737
    outer loop
      vertex -30 9.74595 5.62915
      vertex -6 8.87459 7.58625
      vertex -6 9.74595 5.62915
    endloop
  endfacet
  facet normal -1.30514e-16 0.809017 0.587785
    outer loop
      vertex -30 7.61538 9.31942
      vertex -6 7.61538 9.31942
      vertex -30 8.87459 7.58625
    endloop
  endfacet
  facet normal -1.30514e-16 0.809017 0.587785
    outer loop
      vertex -30 8.87459 7.58625
      vertex -6 7.61538 9.31942
      vertex -6 8.87459 7.58625
    endloop
  endfacet
  facet normal -1.65011e-16 0.66913 0.743145
    outer loop
      vertex -30 7.61538 9.31942
      vertex -30 6.02333 10.7529
      vertex -6 6.02333 10.7529
    endloop
  endfacet
  facet normal -1.65011e-16 0.66913 0.743145
    outer loop
      vertex -6 7.61538 9.31942
      vertex -30 7.61538 9.31942
      vertex -6 6.02333 10.7529
    endloop
  endfacet
  facet normal -1.92296e-16 0.5 0.866025
    outer loop
      vertex -30 6.02333 10.7529
      vertex -30 4.16803 11.8241
      vertex -6 4.16803 11.8241
    endloop
  endfacet
  facet normal -1.92296e-16 0.5 0.866025
    outer loop
      vertex -6 6.02333 10.7529
      vertex -30 6.02333 10.7529
      vertex -6 4.16803 11.8241
    endloop
  endfacet
  facet normal -2.11177e-16 0.309017 0.951056
    outer loop
      vertex -30 4.16803 11.8241
      vertex -30 2.13057 12.4861
      vertex -6 2.13057 12.4861
    endloop
  endfacet
  facet normal -2.11177e-16 0.309017 0.951056
    outer loop
      vertex -6 4.16803 11.8241
      vertex -30 4.16803 11.8241
      vertex -6 2.13057 12.4861
    endloop
  endfacet
  facet normal 2.20426e-16 -0.120536 -0.992709
    outer loop
      vertex -6 1.97376 10.4703
      vertex -6 0 10.71
      vertex -30 1.97376 10.4703
    endloop
  endfacet
  facet normal 2.20426e-16 -0.120536 -0.992709
    outer loop
      vertex -30 1.97376 10.4703
      vertex -6 0 10.71
      vertex -30 0 10.71
    endloop
  endfacet
  facet normal 2.20426e-16 0.120536 -0.992709
    outer loop
      vertex -6 -1.97376 10.4703
      vertex -30 -1.97376 10.4703
      vertex -6 0 10.71
    endloop
  endfacet
  facet normal 2.20426e-16 0.120536 -0.992709
    outer loop
      vertex -6 0 10.71
      vertex -30 -1.97376 10.4703
      vertex -30 0 10.71
    endloop
  endfacet
  facet normal 2.07615e-16 -0.354605 -0.935016
    outer loop
      vertex -6 3.8328 9.7653
      vertex -6 1.97376 10.4703
      vertex -30 3.8328 9.7653
    endloop
  endfacet
  facet normal 2.07615e-16 -0.354605 -0.935016
    outer loop
      vertex -30 3.8328 9.7653
      vertex -6 1.97376 10.4703
      vertex -30 1.97376 10.4703
    endloop
  endfacet
  facet normal 1.82739e-16 -0.568065 -0.822984
    outer loop
      vertex -6 5.4691 8.63584
      vertex -6 3.8328 9.7653
      vertex -30 5.4691 8.63584
    endloop
  endfacet
  facet normal 1.82739e-16 -0.568065 -0.822984
    outer loop
      vertex -30 5.4691 8.63584
      vertex -6 3.8328 9.7653
      vertex -30 3.8328 9.7653
    endloop
  endfacet
  facet normal 1.47243e-16 -0.748511 -0.663123
    outer loop
      vertex -30 6.78756 7.14761
      vertex -6 6.78756 7.14761
      vertex -6 5.4691 8.63584
    endloop
  endfacet
  facet normal 1.47243e-16 -0.748511 -0.663123
    outer loop
      vertex -30 5.4691 8.63584
      vertex -30 6.78756 7.14761
      vertex -6 5.4691 8.63584
    endloop
  endfacet
  facet normal 1.03189e-16 -0.885456 -0.464723
    outer loop
      vertex -30 7.71155 5.3871
      vertex -6 7.71155 5.3871
      vertex -6 6.78756 7.14761
    endloop
  endfacet
  facet normal 1.03189e-16 -0.885456 -0.464723
    outer loop
      vertex -30 6.78756 7.14761
      vertex -30 7.71155 5.3871
      vertex -6 6.78756 7.14761
    endloop
  endfacet
  facet normal 5.31387e-17 -0.970942 -0.239316
    outer loop
      vertex -30 8.18737 3.45663
      vertex -6 8.18737 3.45663
      vertex -6 7.71155 5.3871
    endloop
  endfacet
  facet normal 5.31387e-17 -0.970942 -0.239316
    outer loop
      vertex -30 7.71155 5.3871
      vertex -30 8.18737 3.45663
      vertex -6 7.71155 5.3871
    endloop
  endfacet
  facet normal 0 -1 0
    outer loop
      vertex -30 8.18737 1.46837
      vertex -6 8.18737 1.46837
      vertex -6 8.18737 2.4625
    endloop
  endfacet
  facet normal 0 -1 0
    outer loop
      vertex -30 8.18737 3.45663
      vertex -30 8.18737 1.46837
      vertex -6 8.18737 3.45663
    endloop
  endfacet
  facet normal 0 -1 0
    outer loop
      vertex -6 8.18737 3.45663
      vertex -30 8.18737 1.46837
      vertex -6 8.18737 2.4625
    endloop
  endfacet
  facet normal -5.31387e-17 -0.970942 0.239316
    outer loop
      vertex -30 7.71155 -0.462104
      vertex -6 7.71155 -0.462104
      vertex -6 8.18737 1.46837
    endloop
  endfacet
  facet normal -5.31387e-17 -0.970942 0.239316
    outer loop
      vertex -30 8.18737 1.46837
      vertex -30 7.71155 -0.462104
      vertex -6 8.18737 1.46837
    endloop
  endfacet
  facet normal -1.03189e-16 -0.885456 0.464723
    outer loop
      vertex -30 6.78756 -2.22261
      vertex -6 6.78756 -2.22261
      vertex -6 7.71155 -0.462104
    endloop
  endfacet
  facet normal -1.03189e-16 -0.885456 0.464723
    outer loop
      vertex -30 7.71155 -0.462104
      vertex -30 6.78756 -2.22261
      vertex -6 7.71155 -0.462104
    endloop
  endfacet
  facet normal -1.47243e-16 -0.748511 0.663123
    outer loop
      vertex -30 5.4691 -3.71084
      vertex -6 5.4691 -3.71084
      vertex -6 6.78756 -2.22261
    endloop
  endfacet
  facet normal -1.47243e-16 -0.748511 0.663123
    outer loop
      vertex -30 6.78756 -2.22261
      vertex -30 5.4691 -3.71084
      vertex -6 6.78756 -2.22261
    endloop
  endfacet
  facet normal -1.82739e-16 -0.568065 0.822984
    outer loop
      vertex -30 3.8328 -4.8403
      vertex -6 3.8328 -4.8403
      vertex -6 5.4691 -3.71084
    endloop
  endfacet
  facet normal -1.82739e-16 -0.568065 0.822984
    outer loop
      vertex -30 5.4691 -3.71084
      vertex -30 3.8328 -4.8403
      vertex -6 5.4691 -3.71084
    endloop
  endfacet
  facet normal -2.07615e-16 -0.354605 0.935016
    outer loop
      vertex -30 1.97376 -5.54534
      vertex -6 1.97376 -5.54534
      vertex -6 3.8328 -4.8403
    endloop
  endfacet
  facet normal -2.07615e-16 -0.354605 0.935016
    outer loop
      vertex -30 3.8328 -4.8403
      vertex -30 1.97376 -5.54534
      vertex -6 3.8328 -4.8403
    endloop
  endfacet
  facet normal -2.20426e-16 -0.120536 0.992709
    outer loop
      vertex -30 0 -5.785
      vertex -6 0 -5.785
      vertex -6 1.97376 -5.54534
    endloop
  endfacet
  facet normal -2.20426e-16 -0.120536 0.992709
    outer loop
      vertex -30 1.97376 -5.54534
      vertex -30 0 -5.785
      vertex -6 1.97376 -5.54534
    endloop
  endfacet
  facet normal -2.20426e-16 0.120536 0.992709
    outer loop
      vertex -6 -1.97376 -5.54534
      vertex -6 0 -5.785
      vertex -30 0 -5.785
    endloop
  endfacet
  facet normal -2.20426e-16 0.120536 0.992709
    outer loop
      vertex -30 -1.97376 -5.54534
      vertex -6 -1.97376 -5.54534
      vertex -30 0 -5.785
    endloop
  endfacet
  facet normal -2.07615e-16 0.354605 0.935016
    outer loop
      vertex -6 -3.8328 -4.8403
      vertex -6 -1.97376 -5.54534
      vertex -30 -1.97376 -5.54534
    endloop
  endfacet
  facet normal -2.07615e-16 0.354605 0.935016
    outer loop
      vertex -30 -3.8328 -4.8403
      vertex -6 -3.8328 -4.8403
      vertex -30 -1.97376 -5.54534
    endloop
  endfacet
  facet normal -1.82739e-16 0.568065 0.822984
    outer loop
      vertex -6 -5.4691 -3.71084
      vertex -6 -3.8328 -4.8403
      vertex -30 -3.8328 -4.8403
    endloop
  endfacet
  facet normal -1.82739e-16 0.568065 0.822984
    outer loop
      vertex -30 -5.4691 -3.71084
      vertex -6 -5.4691 -3.71084
      vertex -30 -3.8328 -4.8403
    endloop
  endfacet
  facet normal -1.47243e-16 0.748511 0.663123
    outer loop
      vertex -6 -5.4691 -3.71084
      vertex -30 -5.4691 -3.71084
      vertex -6 -6.78756 -2.22261
    endloop
  endfacet
  facet normal -1.47243e-16 0.748511 0.663123
    outer loop
      vertex -6 -6.78756 -2.22261
      vertex -30 -5.4691 -3.71084
      vertex -30 -6.78756 -2.22261
    endloop
  endfacet
  facet normal -1.03189e-16 0.885456 0.464723
    outer loop
      vertex -6 -6.78756 -2.22261
      vertex -30 -6.78756 -2.22261
      vertex -6 -7.71155 -0.462104
    endloop
  endfacet
  facet normal -1.03189e-16 0.885456 0.464723
    outer loop
      vertex -6 -7.71155 -0.462104
      vertex -30 -6.78756 -2.22261
      vertex -30 -7.71155 -0.462104
    endloop
  endfacet
  facet normal -5.31387e-17 0.970942 0.239316
    outer loop
      vertex -6 -7.71155 -0.462104
      vertex -30 -7.71155 -0.462104
      vertex -6 -8.18737 1.46837
    endloop
  endfacet
  facet normal -5.31387e-17 0.970942 0.239316
    outer loop
      vertex -6 -8.18737 1.46837
      vertex -30 -7.71155 -0.462104
      vertex -30 -8.18737 1.46837
    endloop
  endfacet
  facet normal 0 1 0
    outer loop
      vertex -6 -8.18737 2.4625
      vertex -6 -8.18737 1.46837
      vertex -6 -8.18737 3.45663
    endloop
  endfacet
  facet normal 0 1 0
    outer loop
      vertex -6 -8.18737 3.45663
      vertex -6 -8.18737 1.46837
      vertex -30 -8.18737 1.46837
    endloop
  endfacet
  facet normal 0 1 0
    outer loop
      vertex -6 -8.18737 3.45663
      vertex -30 -8.18737 1.46837
      vertex -30 -8.18737 3.45663
    endloop
  endfacet
  facet normal 5.31387e-17 0.970942 -0.239316
    outer loop
      vertex -6 -8.18737 3.45663
      vertex -30 -8.18737 3.45663
      vertex -6 -7.71155 5.3871
    endloop
  endfacet
  facet normal 5.31387e-17 0.970942 -0.239316
    outer loop
      vertex -6 -7.71155 5.3871
      vertex -30 -8.18737 3.45663
      vertex -30 -7.71155 5.3871
    endloop
  endfacet
  facet normal 1.03189e-16 0.885456 -0.464723
    outer loop
      vertex -6 -7.71155 5.3871
      vertex -30 -7.71155 5.3871
      vertex -6 -6.78756 7.14761
    endloop
  endfacet
  facet normal 1.03189e-16 0.885456 -0.464723
    outer loop
      vertex -6 -6.78756 7.14761
      vertex -30 -7.71155 5.3871
      vertex -30 -6.78756 7.14761
    endloop
  endfacet
  facet normal 1.47243e-16 0.748511 -0.663123
    outer loop
      vertex -6 -6.78756 7.14761
      vertex -30 -6.78756 7.14761
      vertex -6 -5.4691 8.63584
    endloop
  endfacet
  facet normal 1.47243e-16 0.748511 -0.663123
    outer loop
      vertex -6 -5.4691 8.63584
      vertex -30 -6.78756 7.14761
      vertex -30 -5.4691 8.63584
    endloop
  endfacet
  facet normal 1.82739e-16 0.568065 -0.822984
    outer loop
      vertex -6 -5.4691 8.63584
      vertex -30 -5.4691 8.63584
      vertex -6 -3.8328 9.7653
    endloop
  endfacet
  facet normal 1.82739e-16 0.568065 -0.822984
    outer loop
      vertex -6 -3.8328 9.7653
      vertex -30 -5.4691 8.63584
      vertex -30 -3.8328 9.7653
    endloop
  endfacet
  facet normal 2.07615e-16 0.354605 -0.935016
    outer loop
      vertex -6 -3.8328 9.7653
      vertex -30 -3.8328 9.7653
      vertex -6 -1.97376 10.4703
    endloop
  endfacet
  facet normal 2.07615e-16 0.354605 -0.935016
    outer loop
      vertex -6 -1.97376 10.4703
      vertex -30 -3.8328 9.7653
      vertex -30 -1.97376 10.4703
    endloop
  endfacet
  facet normal 1 0 2.22045e-16
    outer loop
      vertex -6 2.13057 12.4861
      vertex -6 0 12.71
      vertex -6 -2.13057 12.4861
    endloop
  endfacet
  facet normal 1 0 2.22045e-16
    outer loop
      vertex -6 -6.02333 10.7529
      vertex -6 2.13057 12.4861
      vertex -6 -4.16803 11.8241
    endloop
  endfacet
  facet normal 1 0 2.22045e-16
    outer loop
      vertex -6 -4.16803 11.8241
      vertex -6 2.13057 12.4861
      vertex -6 -2.13057 12.4861
    endloop
  endfacet
  facet normal 1 0 2.22045e-16
    outer loop
      vertex -6 -7.61538 9.31942
      vertex -6 2.13057 12.4861
      vertex -6 -6.02333 10.7529
    endloop
  endfacet
  facet normal 1 0 2.22045e-16
    outer loop
      vertex -6 -8.87459 7.58625
      vertex -6 2.13057 12.4861
      vertex -6 -7.61538 9.31942
    endloop
  endfacet
  facet normal 1 0 2.22045e-16
    outer loop
      vertex -6 -3.8328 9.7653
      vertex -6 2.13057 12.4861
      vertex -6 -8.87459 7.58625
    endloop
  endfacet
  facet normal 1 0 2.22045e-16
    outer loop
      vertex -6 -6.78756 7.14761
      vertex -6 -5.4691 8.63584
      vertex -6 -9.74595 5.62915
    endloop
  endfacet
  facet normal 1 0 2.22045e-16
    outer loop
      vertex -6 -8.18737 2.4625
      vertex -6 -8.18737 3.45663
      vertex -6 -10.1914 2.4625
    endloop
  endfacet
  facet normal 1 0 2.22045e-16
    outer loop
      vertex -6 -10.1914 3.53366
      vertex -6 -7.71155 5.3871
      vertex -6 -9.74595 5.62915
    endloop
  endfacet
  facet normal 1 0 2.22045e-16
    outer loop
      vertex -6 0 10.71
      vertex -6 1.97376 10.4703
      vertex -6 2.13057 12.4861
    endloop
  endfacet
  facet normal 1 0 2.22045e-16
    outer loop
      vertex -6 -7.71155 5.3871
      vertex -6 -6.78756 7.14761
      vertex -6 -9.74595 5.62915
    endloop
  endfacet
  facet normal 1 0 2.22045e-16
    outer loop
      vertex -6 -9.74595 5.62915
      vertex -6 -5.4691 8.63584
      vertex -6 -8.87459 7.58625
    endloop
  endfacet
  facet normal 1 0 2.22045e-16
    outer loop
      vertex -6 -5.4691 8.63584
      vertex -6 -3.8328 9.7653
      vertex -6 -8.87459 7.58625
    endloop
  endfacet
  facet normal 1 0 2.22045e-16
    outer loop
      vertex -6 -1.97376 10.4703
      vertex -6 2.13057 12.4861
      vertex -6 -3.8328 9.7653
    endloop
  endfacet
  facet normal 1 0 2.22045e-16
    outer loop
      vertex -6 -1.97376 10.4703
      vertex -6 0 10.71
      vertex -6 2.13057 12.4861
    endloop
  endfacet
  facet normal 1 0 2.22045e-16
    outer loop
      vertex -6 3.8328 9.7653
      vertex -6 2.13057 12.4861
      vertex -6 1.97376 10.4703
    endloop
  endfacet
  facet normal 1 0 2.22045e-16
    outer loop
      vertex -6 5.4691 8.63584
      vertex -6 2.13057 12.4861
      vertex -6 3.8328 9.7653
    endloop
  endfacet
  facet normal 1 0 2.22045e-16
    outer loop
      vertex -6 6.78756 7.14761
      vertex -6 2.13057 12.4861
      vertex -6 5.4691 8.63584
    endloop
  endfacet
  facet normal 1 0 2.22045e-16
    outer loop
      vertex -6 10.1914 3.53366
      vertex -6 2.13057 12.4861
      vertex -6 6.78756 7.14761
    endloop
  endfacet
  facet normal 1 0 2.22045e-16
    outer loop
      vertex -6 10.1914 2.4625
      vertex -6 6.78756 7.14761
      vertex -6 7.71155 5.3871
    endloop
  endfacet
  facet normal 1 0 2.22045e-16
    outer loop
      vertex -6 10.1914 2.4625
      vertex -6 7.71155 5.3871
      vertex -6 8.18737 3.45663
    endloop
  endfacet
  facet normal 1 0 2.22045e-16
    outer loop
      vertex -6 10.1914 2.4625
      vertex -6 8.18737 3.45663
      vertex -6 8.18737 2.4625
    endloop
  endfacet
  facet normal 1 0 2.22045e-16
    outer loop
      vertex -6 10.1914 3.53366
      vertex -6 6.78756 7.14761
      vertex -6 10.1914 2.4625
    endloop
  endfacet
  facet normal 1 0 2.22045e-16
    outer loop
      vertex -6 9.74595 5.62915
      vertex -6 2.13057 12.4861
      vertex -6 10.1914 3.53366
    endloop
  endfacet
  facet normal 1 0 2.22045e-16
    outer loop
      vertex -6 8.87459 7.58625
      vertex -6 2.13057 12.4861
      vertex -6 9.74595 5.62915
    endloop
  endfacet
  facet normal 1 0 2.22045e-16
    outer loop
      vertex -6 7.61538 9.31942
      vertex -6 2.13057 12.4861
      vertex -6 8.87459 7.58625
    endloop
  endfacet
  facet normal 1 0 2.22045e-16
    outer loop
      vertex -6 6.02333 10.7529
      vertex -6 2.13057 12.4861
      vertex -6 7.61538 9.31942
    endloop
  endfacet
  facet normal 1 0 2.22045e-16
    outer loop
      vertex -6 4.16803 11.8241
      vertex -6 2.13057 12.4861
      vertex -6 6.02333 10.7529
    endloop
  endfacet
  facet normal 1 0 2.22045e-16
    outer loop
      vertex -6 -8.18737 3.45663
      vertex -6 -10.1914 3.53366
      vertex -6 -10.1914 2.4625
    endloop
  endfacet
  facet normal 1 0 2.22045e-16
    outer loop
      vertex -6 -8.18737 3.45663
      vertex -6 -7.71155 5.3871
      vertex -6 -10.1914 3.53366
    endloop
  endfacet
  facet normal -1 0 0
    outer loop
      vertex -6 -18.2322 26.6928
      vertex -6 -25 29.925
      vertex -6 25 29.925
    endloop
  endfacet
  facet normal -1 0 0
    outer loop
      vertex -6 -25 -29.925
      vertex -6 -25 29.925
      vertex -6 -22.5 -24.925
    endloop
  endfacet
  facet normal -1 0 0
    outer loop
      vertex -6 -21.7678 26.6928
      vertex -6 -25 29.925
      vertex -6 -20 27.425
    endloop
  endfacet
  facet normal -1 0 0
    outer loop
      vertex -6 -25 -29.925
      vertex -6 -22.5 -24.925
      vertex -6 -21.7678 -26.6928
    endloop
  endfacet
  facet normal -1 0 0
    outer loop
      vertex -6 -25 -29.925
      vertex -6 -21.7678 -26.6928
      vertex -6 -20 -27.425
    endloop
  endfacet
  facet normal -1 0 0
    outer loop
      vertex -6 -25 -29.925
      vertex -6 -20 -27.425
      vertex -6 25 -29.925
    endloop
  endfacet
  facet normal -1 0 0
    outer loop
      vertex -6 -17.5 -24.925
      vertex -6 25 -29.925
      vertex -6 -18.2322 -26.6928
    endloop
  endfacet
  facet normal -1 0 0
    outer loop
      vertex -6 -18.2322 -23.1572
      vertex -6 -25 29.925
      vertex -6 -17.5 -24.925
    endloop
  endfacet
  facet normal -1 0 0
    outer loop
      vertex -6 -22.5 24.925
      vertex -6 -25 29.925
      vertex -6 -21.7678 26.6928
    endloop
  endfacet
  facet normal -1 0 0
    outer loop
      vertex -6 -20 -22.425
      vertex -6 -25 29.925
      vertex -6 -18.2322 -23.1572
    endloop
  endfacet
  facet normal -1 0 0
    outer loop
      vertex -6 -21.7678 -23.1572
      vertex -6 -25 29.925
      vertex -6 -20 -22.425
    endloop
  endfacet
  facet normal -1 0 0
    outer loop
      vertex -6 -22.5 -24.925
      vertex -6 -25 29.925
      vertex -6 -21.7678 -23.1572
    endloop
  endfacet
  facet normal -1 0 0
    outer loop
      vertex -6 -17.5 -24.925
      vertex -6 -25 29.925
      vertex -6 -22.5 24.925
    endloop
  endfacet
  facet normal -1 0 0
    outer loop
      vertex -6 -17.5 -24.925
      vertex -6 -22.5 24.925
      vertex -6 -21.7678 23.1572
    endloop
  endfacet
  facet normal -1 0 0
    outer loop
      vertex -6 17.5 -24.925
      vertex -6 -6.02333 -5.8279
      vertex -6 -4.16803 -6.89906
    endloop
  endfacet
  facet normal -1 0 0
    outer loop
      vertex -6 -4.75 -2.575
      vertex -6 -1.97376 -5.54534
      vertex -6 -7.71155 -0.462104
    endloop
  endfacet
  facet normal -1 0 0
    outer loop
      vertex -6 20 27.425
      vertex -6 -18.2322 23.1572
      vertex -6 25 29.925
    endloop
  endfacet
  facet normal -1 0 0
    outer loop
      vertex -6 -10.1914 2.4625
      vertex -6 -21.7678 23.1572
      vertex -6 -8.18737 2.4625
    endloop
  endfacet
  facet normal -1 0 0
    outer loop
      vertex -6 -18.2322 23.1572
      vertex -6 -17.5 24.925
      vertex -6 25 29.925
    endloop
  endfacet
  facet normal -1 0 0
    outer loop
      vertex -6 -20 27.425
      vertex -6 -25 29.925
      vertex -6 -18.2322 26.6928
    endloop
  endfacet
  facet normal -1 0 0
    outer loop
      vertex -6 -17.5 24.925
      vertex -6 -18.2322 26.6928
      vertex -6 25 29.925
    endloop
  endfacet
  facet normal -1 0 0
    outer loop
      vertex -6 -17.5 -24.925
      vertex -6 -21.7678 23.1572
      vertex -6 -10.1914 2.4625
    endloop
  endfacet
  facet normal -1 0 0
    outer loop
      vertex -6 -17.5 -24.925
      vertex -6 -10.1914 2.4625
      vertex -6 -10.1914 1.39135
    endloop
  endfacet
  facet normal -1 0 0
    outer loop
      vertex -6 -17.5 -24.925
      vertex -6 -10.1914 1.39135
      vertex -6 -9.74595 -0.704152
    endloop
  endfacet
  facet normal -1 0 0
    outer loop
      vertex -6 -17.5 -24.925
      vertex -6 -9.74595 -0.704152
      vertex -6 -8.87459 -2.66125
    endloop
  endfacet
  facet normal -1 0 0
    outer loop
      vertex -6 -17.5 -24.925
      vertex -6 -8.87459 -2.66125
      vertex -6 -7.61538 -4.39442
    endloop
  endfacet
  facet normal -1 0 0
    outer loop
      vertex -6 -17.5 -24.925
      vertex -6 -7.61538 -4.39442
      vertex -6 -6.02333 -5.8279
    endloop
  endfacet
  facet normal -1 0 0
    outer loop
      vertex -6 21.7678 -26.6928
      vertex -6 25 -29.925
      vertex -6 20 -27.425
    endloop
  endfacet
  facet normal -1 0 0
    outer loop
      vertex -6 21.7678 23.1572
      vertex -6 10.1914 2.4625
      vertex -6 20 22.425
    endloop
  endfacet
  facet normal -1 0 0
    outer loop
      vertex -6 -6.78756 -2.22261
      vertex -6 -3.8328 -4.8403
      vertex -6 -5.4691 -3.71084
    endloop
  endfacet
  facet normal -1 0 0
    outer loop
      vertex -6 18.2322 -23.1572
      vertex -6 4.16803 -6.89906
      vertex -6 6.02333 -5.8279
    endloop
  endfacet
  facet normal -1 0 0
    outer loop
      vertex -6 4.75 6.925
      vertex -6 10.1914 2.4625
      vertex -6 8.18737 2.4625
    endloop
  endfacet
  facet normal -1 0 0
    outer loop
      vertex -6 4.75 -2.575
      vertex -6 0 -5.785
      vertex -6 -4.75 -2.575
    endloop
  endfacet
  facet normal -1 0 0
    outer loop
      vertex -6 22.5 24.925
      vertex -6 25 29.925
      vertex -6 21.7678 23.1572
    endloop
  endfacet
  facet normal -1 0 0
    outer loop
      vertex -6 22.5 -24.925
      vertex -6 25 -29.925
      vertex -6 21.7678 -26.6928
    endloop
  endfacet
  facet normal -1 0 0
    outer loop
      vertex -6 6.78756 -2.22261
      vertex -6 8.18737 1.46837
      vertex -6 7.71155 -0.462104
    endloop
  endfacet
  facet normal -1 0 0
    outer loop
      vertex -6 20 -22.425
      vertex -6 7.61538 -4.39442
      vertex -6 8.87459 -2.66125
    endloop
  endfacet
  facet normal -1 0 0
    outer loop
      vertex -6 21.7678 26.6928
      vertex -6 25 29.925
      vertex -6 22.5 24.925
    endloop
  endfacet
  facet normal -1 0 0
    outer loop
      vertex -6 -4.75 -2.575
      vertex -6 -18.2322 23.1572
      vertex -6 -4.75 6.925
    endloop
  endfacet
  facet normal -1 0 0
    outer loop
      vertex -6 6.78756 -2.22261
      vertex -6 8.18737 2.4625
      vertex -6 8.18737 1.46837
    endloop
  endfacet
  facet normal -1 0 0
    outer loop
      vertex -6 -4.75 -2.575
      vertex -6 -20 22.425
      vertex -6 -18.2322 23.1572
    endloop
  endfacet
  facet normal -1 0 0
    outer loop
      vertex -6 17.5 -24.925
      vertex -6 -4.16803 -6.89906
      vertex -6 -2.13057 -7.56107
    endloop
  endfacet
  facet normal -1 0 0
    outer loop
      vertex -6 -4.75 -2.575
      vertex -6 -21.7678 23.1572
      vertex -6 -20 22.425
    endloop
  endfacet
  facet normal -1 0 0
    outer loop
      vertex -6 -4.75 -2.575
      vertex -6 -8.18737 1.46837
      vertex -6 -8.18737 2.4625
    endloop
  endfacet
  facet normal -1 0 0
    outer loop
      vertex -6 -1.97376 -5.54534
      vertex -6 -4.75 -2.575
      vertex -6 0 -5.785
    endloop
  endfacet
  facet normal -1 0 0
    outer loop
      vertex -6 4.75 -2.575
      vertex -6 1.97376 -5.54534
      vertex -6 0 -5.785
    endloop
  endfacet
  facet normal -1 0 0
    outer loop
      vertex -6 4.75 6.925
      vertex -6 6.78756 -2.22261
      vertex -6 4.75 -2.575
    endloop
  endfacet
  facet normal -1 0 0
    outer loop
      vertex -6 -8.18737 1.46837
      vertex -6 -4.75 -2.575
      vertex -6 -7.71155 -0.462104
    endloop
  endfacet
  facet normal -1 0 0
    outer loop
      vertex -6 -7.71155 -0.462104
      vertex -6 -3.8328 -4.8403
      vertex -6 -6.78756 -2.22261
    endloop
  endfacet
  facet normal -1 0 0
    outer loop
      vertex -6 -7.71155 -0.462104
      vertex -6 -1.97376 -5.54534
      vertex -6 -3.8328 -4.8403
    endloop
  endfacet
  facet normal -1 0 0
    outer loop
      vertex -6 4.75 -2.575
      vertex -6 5.4691 -3.71084
      vertex -6 3.8328 -4.8403
    endloop
  endfacet
  facet normal -1 0 0
    outer loop
      vertex -6 -4.75 6.925
      vertex -6 -18.2322 23.1572
      vertex -6 4.75 6.925
    endloop
  endfacet
  facet normal -1 0 0
    outer loop
      vertex -6 4.75 -2.575
      vertex -6 3.8328 -4.8403
      vertex -6 1.97376 -5.54534
    endloop
  endfacet
  facet normal -1 0 0
    outer loop
      vertex -6 4.75 6.925
      vertex -6 8.18737 2.4625
      vertex -6 6.78756 -2.22261
    endloop
  endfacet
  facet normal -1 0 0
    outer loop
      vertex -6 -4.75 -2.575
      vertex -6 -8.18737 2.4625
      vertex -6 -21.7678 23.1572
    endloop
  endfacet
  facet normal -1 0 0
    outer loop
      vertex -6 5.4691 -3.71084
      vertex -6 4.75 -2.575
      vertex -6 6.78756 -2.22261
    endloop
  endfacet
  facet normal -1 0 0
    outer loop
      vertex -6 17.5 -24.925
      vertex -6 -2.13057 -7.56107
      vertex -6 0 -7.785
    endloop
  endfacet
  facet normal -1 0 0
    outer loop
      vertex -6 21.7678 23.1572
      vertex -6 8.87459 -2.66125
      vertex -6 9.74595 -0.704152
    endloop
  endfacet
  facet normal -1 0 0
    outer loop
      vertex -6 -17.5 -24.925
      vertex -6 -6.02333 -5.8279
      vertex -6 17.5 -24.925
    endloop
  endfacet
  facet normal -1 0 0
    outer loop
      vertex -6 21.7678 23.1572
      vertex -6 10.1914 1.39135
      vertex -6 10.1914 2.4625
    endloop
  endfacet
  facet normal -1 0 0
    outer loop
      vertex -6 -17.5 -24.925
      vertex -6 17.5 -24.925
      vertex -6 18.2322 -26.6928
    endloop
  endfacet
  facet normal -1 0 0
    outer loop
      vertex -6 -17.5 -24.925
      vertex -6 18.2322 -26.6928
      vertex -6 25 -29.925
    endloop
  endfacet
  facet normal -1 0 0
    outer loop
      vertex -6 18.2322 -26.6928
      vertex -6 20 -27.425
      vertex -6 25 -29.925
    endloop
  endfacet
  facet normal -1 0 0
    outer loop
      vertex -6 20 22.425
      vertex -6 4.75 6.925
      vertex -6 18.2322 23.1572
    endloop
  endfacet
  facet normal -1 0 0
    outer loop
      vertex -6 20 -22.425
      vertex -6 8.87459 -2.66125
      vertex -6 21.7678 -23.1572
    endloop
  endfacet
  facet normal -1 0 0
    outer loop
      vertex -6 25 -29.925
      vertex -6 22.5 -24.925
      vertex -6 25 29.925
    endloop
  endfacet
  facet normal -1 0 0
    outer loop
      vertex -6 18.2322 -23.1572
      vertex -6 6.02333 -5.8279
      vertex -6 7.61538 -4.39442
    endloop
  endfacet
  facet normal -1 0 0
    outer loop
      vertex -6 22.5 -24.925
      vertex -6 21.7678 -23.1572
      vertex -6 25 29.925
    endloop
  endfacet
  facet normal -1 0 0
    outer loop
      vertex -6 18.2322 -23.1572
      vertex -6 7.61538 -4.39442
      vertex -6 20 -22.425
    endloop
  endfacet
  facet normal -1 0 0
    outer loop
      vertex -6 2.13057 -7.56107
      vertex -6 4.16803 -6.89906
      vertex -6 18.2322 -23.1572
    endloop
  endfacet
  facet normal -1 0 0
    outer loop
      vertex -6 4.75 6.925
      vertex -6 -18.2322 23.1572
      vertex -6 17.5 24.925
    endloop
  endfacet
  facet normal -1 0 0
    outer loop
      vertex -6 4.75 6.925
      vertex -6 17.5 24.925
      vertex -6 18.2322 23.1572
    endloop
  endfacet
  facet normal -1 0 0
    outer loop
      vertex -6 21.7678 23.1572
      vertex -6 9.74595 -0.704152
      vertex -6 10.1914 1.39135
    endloop
  endfacet
  facet normal -1 0 0
    outer loop
      vertex -6 10.1914 2.4625
      vertex -6 4.75 6.925
      vertex -6 20 22.425
    endloop
  endfacet
  facet normal -1 0 0
    outer loop
      vertex -6 21.7678 -23.1572
      vertex -6 8.87459 -2.66125
      vertex -6 21.7678 23.1572
    endloop
  endfacet
  facet normal -1 0 0
    outer loop
      vertex -6 21.7678 -23.1572
      vertex -6 21.7678 23.1572
      vertex -6 25 29.925
    endloop
  endfacet
  facet normal -1 0 0
    outer loop
      vertex -6 20 27.425
      vertex -6 25 29.925
      vertex -6 21.7678 26.6928
    endloop
  endfacet
  facet normal -1 0 0
    outer loop
      vertex -6 18.2322 26.6928
      vertex -6 -18.2322 23.1572
      vertex -6 20 27.425
    endloop
  endfacet
  facet normal -1 0 0
    outer loop
      vertex -6 17.5 24.925
      vertex -6 -18.2322 23.1572
      vertex -6 18.2322 26.6928
    endloop
  endfacet
  facet normal -1 0 0
    outer loop
      vertex -6 -18.2322 -26.6928
      vertex -6 25 -29.925
      vertex -6 -20 -27.425
    endloop
  endfacet
  facet normal -1 0 0
    outer loop
      vertex -6 17.5 -24.925
      vertex -6 0 -7.785
      vertex -6 2.13057 -7.56107
    endloop
  endfacet
  facet normal -1 0 0
    outer loop
      vertex -6 17.5 -24.925
      vertex -6 2.13057 -7.56107
      vertex -6 18.2322 -23.1572
    endloop
  endfacet
  facet normal 0 0 -1
    outer loop
      vertex -6 -25 -29.925
      vertex -6 25 -29.925
      vertex 0 -25 -29.925
    endloop
  endfacet
  facet normal 0 0 -1
    outer loop
      vertex 0 -25 -29.925
      vertex -6 25 -29.925
      vertex 0 25 -29.925
    endloop
  endfacet
  facet normal 0 1 0
    outer loop
      vertex -6 25 -29.925
      vertex -6 25 29.925
      vertex 0 25 -29.925
    endloop
  endfacet
  facet normal 0 1 0
    outer loop
      vertex 0 25 -29.925
      vertex -6 25 29.925
      vertex 0 25 29.925
    endloop
  endfacet
  facet normal 0 0 1
    outer loop
      vertex -6 25 29.925
      vertex -6 -25 29.925
      vertex 0 -25 29.925
    endloop
  endfacet
  facet normal 0 0 1
    outer loop
      vertex 0 25 29.925
      vertex -6 25 29.925
      vertex 0 -25 29.925
    endloop
  endfacet
  facet normal 0 -1 0
    outer loop
      vertex -6 -25 29.925
      vertex -6 -25 -29.925
      vertex 0 -25 -29.925
    endloop
  endfacet
  facet normal 0 -1 0
    outer loop
      vertex 0 -25 29.925
      vertex -6 -25 29.925
      vertex 0 -25 -29.925
    endloop
  endfacet
  facet normal 8.49728e-17 0.92388 -0.382683
    outer loop
      vertex 0 -21.7678 -23.1572
      vertex 0 -22.5 -24.925
      vertex -6 -21.7678 -23.1572
    endloop
  endfacet
  facet normal 8.49728e-17 0.92388 -0.382683
    outer loop
      vertex -6 -21.7678 -23.1572
      vertex 0 -22.5 -24.925
      vertex -6 -22.5 -24.925
    endloop
  endfacet
  facet normal -8.49728e-17 0.92388 0.382683
    outer loop
      vertex 0 -21.7678 -26.6928
      vertex -6 -21.7678 -26.6928
      vertex 0 -22.5 -24.925
    endloop
  endfacet
  facet normal -8.49728e-17 0.92388 0.382683
    outer loop
      vertex 0 -22.5 -24.925
      vertex -6 -21.7678 -26.6928
      vertex -6 -22.5 -24.925
    endloop
  endfacet
  facet normal 2.05142e-16 0.382683 -0.92388
    outer loop
      vertex 0 -20 -22.425
      vertex 0 -21.7678 -23.1572
      vertex -6 -20 -22.425
    endloop
  endfacet
  facet normal 2.05142e-16 0.382683 -0.92388
    outer loop
      vertex -6 -20 -22.425
      vertex 0 -21.7678 -23.1572
      vertex -6 -21.7678 -23.1572
    endloop
  endfacet
  facet normal 2.05142e-16 -0.382683 -0.92388
    outer loop
      vertex 0 -18.2322 -23.1572
      vertex 0 -20 -22.425
      vertex -6 -18.2322 -23.1572
    endloop
  endfacet
  facet normal 2.05142e-16 -0.382683 -0.92388
    outer loop
      vertex -6 -18.2322 -23.1572
      vertex 0 -20 -22.425
      vertex -6 -20 -22.425
    endloop
  endfacet
  facet normal 8.49728e-17 -0.92388 -0.382683
    outer loop
      vertex -6 -17.5 -24.925
      vertex 0 -17.5 -24.925
      vertex 0 -18.2322 -23.1572
    endloop
  endfacet
  facet normal 8.49728e-17 -0.92388 -0.382683
    outer loop
      vertex -6 -18.2322 -23.1572
      vertex -6 -17.5 -24.925
      vertex 0 -18.2322 -23.1572
    endloop
  endfacet
  facet normal -8.49728e-17 -0.92388 0.382683
    outer loop
      vertex 0 -18.2322 -26.6928
      vertex 0 -17.5 -24.925
      vertex -6 -17.5 -24.925
    endloop
  endfacet
  facet normal -8.49728e-17 -0.92388 0.382683
    outer loop
      vertex -6 -18.2322 -26.6928
      vertex 0 -18.2322 -26.6928
      vertex -6 -17.5 -24.925
    endloop
  endfacet
  facet normal -2.05142e-16 -0.382683 0.92388
    outer loop
      vertex 0 -20 -27.425
      vertex 0 -18.2322 -26.6928
      vertex -6 -18.2322 -26.6928
    endloop
  endfacet
  facet normal -2.05142e-16 -0.382683 0.92388
    outer loop
      vertex -6 -20 -27.425
      vertex 0 -20 -27.425
      vertex -6 -18.2322 -26.6928
    endloop
  endfacet
  facet normal -2.05142e-16 0.382683 0.92388
    outer loop
      vertex 0 -21.7678 -26.6928
      vertex 0 -20 -27.425
      vertex -6 -20 -27.425
    endloop
  endfacet
  facet normal -2.05142e-16 0.382683 0.92388
    outer loop
      vertex -6 -21.7678 -26.6928
      vertex 0 -21.7678 -26.6928
      vertex -6 -20 -27.425
    endloop
  endfacet
  facet normal 8.49728e-17 0.92388 -0.382683
    outer loop
      vertex 0 -21.7678 26.6928
      vertex 0 -22.5 24.925
      vertex -6 -21.7678 26.6928
    endloop
  endfacet
  facet normal 8.49728e-17 0.92388 -0.382683
    outer loop
      vertex -6 -21.7678 26.6928
      vertex 0 -22.5 24.925
      vertex -6 -22.5 24.925
    endloop
  endfacet
  facet normal -8.49728e-17 0.92388 0.382683
    outer loop
      vertex 0 -21.7678 23.1572
      vertex -6 -21.7678 23.1572
      vertex 0 -22.5 24.925
    endloop
  endfacet
  facet normal -8.49728e-17 0.92388 0.382683
    outer loop
      vertex 0 -22.5 24.925
      vertex -6 -21.7678 23.1572
      vertex -6 -22.5 24.925
    endloop
  endfacet
  facet normal 2.05142e-16 0.382683 -0.92388
    outer loop
      vertex 0 -20 27.425
      vertex 0 -21.7678 26.6928
      vertex -6 -20 27.425
    endloop
  endfacet
  facet normal 2.05142e-16 0.382683 -0.92388
    outer loop
      vertex -6 -20 27.425
      vertex 0 -21.7678 26.6928
      vertex -6 -21.7678 26.6928
    endloop
  endfacet
  facet normal 2.05142e-16 -0.382683 -0.92388
    outer loop
      vertex 0 -18.2322 26.6928
      vertex 0 -20 27.425
      vertex -6 -18.2322 26.6928
    endloop
  endfacet
  facet normal 2.05142e-16 -0.382683 -0.92388
    outer loop
      vertex -6 -18.2322 26.6928
      vertex 0 -20 27.425
      vertex -6 -20 27.425
    endloop
  endfacet
  facet normal 8.49728e-17 -0.92388 -0.382683
    outer loop
      vertex -6 -17.5 24.925
      vertex 0 -17.5 24.925
      vertex 0 -18.2322 26.6928
    endloop
  endfacet
  facet normal 8.49728e-17 -0.92388 -0.382683
    outer loop
      vertex -6 -18.2322 26.6928
      vertex -6 -17.5 24.925
      vertex 0 -18.2322 26.6928
    endloop
  endfacet
  facet normal -8.49728e-17 -0.92388 0.382683
    outer loop
      vertex 0 -18.2322 23.1572
      vertex 0 -17.5 24.925
      vertex -6 -17.5 24.925
    endloop
  endfacet
  facet normal -8.49728e-17 -0.92388 0.382683
    outer loop
      vertex -6 -18.2322 23.1572
      vertex 0 -18.2322 23.1572
      vertex -6 -17.5 24.925
    endloop
  endfacet
  facet normal -2.05142e-16 -0.382683 0.92388
    outer loop
      vertex 0 -20 22.425
      vertex 0 -18.2322 23.1572
      vertex -6 -18.2322 23.1572
    endloop
  endfacet
  facet normal -2.05142e-16 -0.382683 0.92388
    outer loop
      vertex -6 -20 22.425
      vertex 0 -20 22.425
      vertex -6 -18.2322 23.1572
    endloop
  endfacet
  facet normal -2.05142e-16 0.382683 0.92388
    outer loop
      vertex 0 -21.7678 23.1572
      vertex 0 -20 22.425
      vertex -6 -20 22.425
    endloop
  endfacet
  facet normal -2.05142e-16 0.382683 0.92388
    outer loop
      vertex -6 -21.7678 23.1572
      vertex 0 -21.7678 23.1572
      vertex -6 -20 22.425
    endloop
  endfacet
  facet normal 0 1 0
    outer loop
      vertex -3.5 -4.75 6.925
      vertex -3.5 -4.75 4.425
      vertex -6 -4.75 6.925
    endloop
  endfacet
  facet normal 0 1 0
    outer loop
      vertex -1.5 -4.75 -2.575
      vertex -3.5 -4.75 4.425
      vertex -1.5 -4.75 4.425
    endloop
  endfacet
  facet normal 0 1 0
    outer loop
      vertex -6 -4.75 6.925
      vertex -3.5 -4.75 4.425
      vertex -1.5 -4.75 -2.575
    endloop
  endfacet
  facet normal 0 1 0
    outer loop
      vertex -6 -4.75 6.925
      vertex -1.5 -4.75 -2.575
      vertex -6 -4.75 -2.575
    endloop
  endfacet
  facet normal 0 0 -1
    outer loop
      vertex -3.5 4.75 6.925
      vertex -3.5 -4.75 6.925
      vertex -6 4.75 6.925
    endloop
  endfacet
  facet normal 0 0 -1
    outer loop
      vertex -6 4.75 6.925
      vertex -3.5 -4.75 6.925
      vertex -6 -4.75 6.925
    endloop
  endfacet
  facet normal 0 -1 0
    outer loop
      vertex -1.5 4.75 -2.575
      vertex -1.5 4.75 4.425
      vertex -3.5 4.75 4.425
    endloop
  endfacet
  facet normal 0 -1 0
    outer loop
      vertex -6 4.75 6.925
      vertex -1.5 4.75 -2.575
      vertex -3.5 4.75 4.425
    endloop
  endfacet
  facet normal 0 -1 0
    outer loop
      vertex -3.5 4.75 6.925
      vertex -6 4.75 6.925
      vertex -3.5 4.75 4.425
    endloop
  endfacet
  facet normal 0 -1 0
    outer loop
      vertex -6 4.75 6.925
      vertex -6 4.75 -2.575
      vertex -1.5 4.75 -2.575
    endloop
  endfacet
  facet normal 0 0 1
    outer loop
      vertex -1.5 -4.75 -2.575
      vertex -1.5 4.75 -2.575
      vertex -6 4.75 -2.575
    endloop
  endfacet
  facet normal 0 0 1
    outer loop
      vertex -6 -4.75 -2.575
      vertex -1.5 -4.75 -2.575
      vertex -6 4.75 -2.575
    endloop
  endfacet
  facet normal 8.49728e-17 0.92388 -0.382683
    outer loop
      vertex 0 18.2322 -23.1572
      vertex 0 17.5 -24.925
      vertex -6 18.2322 -23.1572
    endloop
  endfacet
  facet normal 8.49728e-17 0.92388 -0.382683
    outer loop
      vertex -6 18.2322 -23.1572
      vertex 0 17.5 -24.925
      vertex -6 17.5 -24.925
    endloop
  endfacet
  facet normal -8.49728e-17 0.92388 0.382683
    outer loop
      vertex 0 18.2322 -26.6928
      vertex -6 18.2322 -26.6928
      vertex 0 17.5 -24.925
    endloop
  endfacet
  facet normal -8.49728e-17 0.92388 0.382683
    outer loop
      vertex 0 17.5 -24.925
      vertex -6 18.2322 -26.6928
      vertex -6 17.5 -24.925
    endloop
  endfacet
  facet normal 2.05142e-16 0.382683 -0.92388
    outer loop
      vertex 0 20 -22.425
      vertex 0 18.2322 -23.1572
      vertex -6 20 -22.425
    endloop
  endfacet
  facet normal 2.05142e-16 0.382683 -0.92388
    outer loop
      vertex -6 20 -22.425
      vertex 0 18.2322 -23.1572
      vertex -6 18.2322 -23.1572
    endloop
  endfacet
  facet normal 2.05142e-16 -0.382683 -0.92388
    outer loop
      vertex 0 21.7678 -23.1572
      vertex 0 20 -22.425
      vertex -6 21.7678 -23.1572
    endloop
  endfacet
  facet normal 2.05142e-16 -0.382683 -0.92388
    outer loop
      vertex -6 21.7678 -23.1572
      vertex 0 20 -22.425
      vertex -6 20 -22.425
    endloop
  endfacet
  facet normal 8.49728e-17 -0.92388 -0.382683
    outer loop
      vertex -6 22.5 -24.925
      vertex 0 22.5 -24.925
      vertex 0 21.7678 -23.1572
    endloop
  endfacet
  facet normal 8.49728e-17 -0.92388 -0.382683
    outer loop
      vertex -6 21.7678 -23.1572
      vertex -6 22.5 -24.925
      vertex 0 21.7678 -23.1572
    endloop
  endfacet
  facet normal -8.49728e-17 -0.92388 0.382683
    outer loop
      vertex 0 21.7678 -26.6928
      vertex 0 22.5 -24.925
      vertex -6 22.5 -24.925
    endloop
  endfacet
  facet normal -8.49728e-17 -0.92388 0.382683
    outer loop
      vertex -6 21.7678 -26.6928
      vertex 0 21.7678 -26.6928
      vertex -6 22.5 -24.925
    endloop
  endfacet
  facet normal -2.05142e-16 -0.382683 0.92388
    outer loop
      vertex 0 20 -27.425
      vertex 0 21.7678 -26.6928
      vertex -6 21.7678 -26.6928
    endloop
  endfacet
  facet normal -2.05142e-16 -0.382683 0.92388
    outer loop
      vertex -6 20 -27.425
      vertex 0 20 -27.425
      vertex -6 21.7678 -26.6928
    endloop
  endfacet
  facet normal -2.05142e-16 0.382683 0.92388
    outer loop
      vertex 0 18.2322 -26.6928
      vertex 0 20 -27.425
      vertex -6 20 -27.425
    endloop
  endfacet
  facet normal -2.05142e-16 0.382683 0.92388
    outer loop
      vertex -6 18.2322 -26.6928
      vertex 0 18.2322 -26.6928
      vertex -6 20 -27.425
    endloop
  endfacet
  facet normal -8.49728e-17 0.92388 0.382683
    outer loop
      vertex 0 18.2322 23.1572
      vertex -6 18.2322 23.1572
      vertex 0 17.5 24.925
    endloop
  endfacet
  facet normal -8.49728e-17 0.92388 0.382683
    outer loop
      vertex 0 17.5 24.925
      vertex -6 18.2322 23.1572
      vertex -6 17.5 24.925
    endloop
  endfacet
  facet normal 8.49728e-17 0.92388 -0.382683
    outer loop
      vertex 0 18.2322 26.6928
      vertex 0 17.5 24.925
      vertex -6 18.2322 26.6928
    endloop
  endfacet
  facet normal 8.49728e-17 0.92388 -0.382683
    outer loop
      vertex -6 18.2322 26.6928
      vertex 0 17.5 24.925
      vertex -6 17.5 24.925
    endloop
  endfacet
  facet normal 2.05142e-16 0.382683 -0.92388
    outer loop
      vertex 0 20 27.425
      vertex 0 18.2322 26.6928
      vertex -6 20 27.425
    endloop
  endfacet
  facet normal 2.05142e-16 0.382683 -0.92388
    outer loop
      vertex -6 20 27.425
      vertex 0 18.2322 26.6928
      vertex -6 18.2322 26.6928
    endloop
  endfacet
  facet normal 2.05142e-16 -0.382683 -0.92388
    outer loop
      vertex 0 21.7678 26.6928
      vertex 0 20 27.425
      vertex -6 21.7678 26.6928
    endloop
  endfacet
  facet normal 2.05142e-16 -0.382683 -0.92388
    outer loop
      vertex -6 21.7678 26.6928
      vertex 0 20 27.425
      vertex -6 20 27.425
    endloop
  endfacet
  facet normal 8.49728e-17 -0.92388 -0.382683
    outer loop
      vertex -6 22.5 24.925
      vertex 0 22.5 24.925
      vertex 0 21.7678 26.6928
    endloop
  endfacet
  facet normal 8.49728e-17 -0.92388 -0.382683
    outer loop
      vertex -6 21.7678 26.6928
      vertex -6 22.5 24.925
      vertex 0 21.7678 26.6928
    endloop
  endfacet
  facet normal -8.49728e-17 -0.92388 0.382683
    outer loop
      vertex 0 21.7678 23.1572
      vertex 0 22.5 24.925
      vertex -6 22.5 24.925
    endloop
  endfacet
  facet normal -8.49728e-17 -0.92388 0.382683
    outer loop
      vertex -6 21.7678 23.1572
      vertex 0 21.7678 23.1572
      vertex -6 22.5 24.925
    endloop
  endfacet
  facet normal -2.05142e-16 -0.382683 0.92388
    outer loop
      vertex 0 20 22.425
      vertex 0 21.7678 23.1572
      vertex -6 21.7678 23.1572
    endloop
  endfacet
  facet normal -2.05142e-16 -0.382683 0.92388
    outer loop
      vertex -6 20 22.425
      vertex 0 20 22.425
      vertex -6 21.7678 23.1572
    endloop
  endfacet
  facet normal -2.05142e-16 0.382683 0.92388
    outer loop
      vertex 0 18.2322 23.1572
      vertex 0 20 22.425
      vertex -6 20 22.425
    endloop
  endfacet
  facet normal -2.05142e-16 0.382683 0.92388
    outer loop
      vertex -6 18.2322 23.1572
      vertex 0 18.2322 23.1572
      vertex -6 20 22.425
    endloop
  endfacet
  facet normal 1 0 0
    outer loop
      vertex 0 -20 -27.425
      vertex 0 -25 -29.925
      vertex 0 25 -29.925
    endloop
  endfacet
  facet normal 1 0 0
    outer loop
      vertex 0 -22.5 -24.925
      vertex 0 -25 -29.925
      vertex 0 -21.7678 -26.6928
    endloop
  endfacet
  facet normal 1 0 0
    outer loop
      vertex 0 -18.2322 -23.1572
      vertex 0 -17.5 -24.925
      vertex 0 25 -29.925
    endloop
  endfacet
  facet normal 1 0 0
    outer loop
      vertex 0 -25 29.925
      vertex 0 -25 -29.925
      vertex 0 -22.5 -24.925
    endloop
  endfacet
  facet normal 1 0 0
    outer loop
      vertex 0 -18.2322 -26.6928
      vertex 0 -20 -27.425
      vertex 0 25 -29.925
    endloop
  endfacet
  facet normal 1 0 0
    outer loop
      vertex 0 18.2322 -26.6928
      vertex 0 -20 -22.425
      vertex 0 25 -29.925
    endloop
  endfacet
  facet normal 1 0 0
    outer loop
      vertex 0 -25 29.925
      vertex 0 -21.7678 -23.1572
      vertex 0 -20 -22.425
    endloop
  endfacet
  facet normal 1 0 0
    outer loop
      vertex 0 -20 -22.425
      vertex 0 -18.2322 -23.1572
      vertex 0 25 -29.925
    endloop
  endfacet
  facet normal 1 0 0
    outer loop
      vertex 0 -17.5 -24.925
      vertex 0 -18.2322 -26.6928
      vertex 0 25 -29.925
    endloop
  endfacet
  facet normal 1 0 0
    outer loop
      vertex 0 -21.7678 -26.6928
      vertex 0 -25 -29.925
      vertex 0 -20 -27.425
    endloop
  endfacet
  facet normal 1 0 0
    outer loop
      vertex 0 -13.25 -7.775
      vertex 0 -20 22.425
      vertex 0 -21.7678 23.1572
    endloop
  endfacet
  facet normal 1 0 0
    outer loop
      vertex 0 -25 29.925
      vertex 0 -20 -22.425
      vertex 0 -21.7678 23.1572
    endloop
  endfacet
  facet normal 1 0 0
    outer loop
      vertex 0 -25 29.925
      vertex 0 -21.7678 23.1572
      vertex 0 -22.5 24.925
    endloop
  endfacet
  facet normal 1 0 0
    outer loop
      vertex 0 -13.25 -7.775
      vertex 0 -18.2322 23.1572
      vertex 0 -20 22.425
    endloop
  endfacet
  facet normal 1 0 0
    outer loop
      vertex 0 -20 27.425
      vertex 0 -25 29.925
      vertex 0 -21.7678 26.6928
    endloop
  endfacet
  facet normal 1 0 0
    outer loop
      vertex 0 25 29.925
      vertex 0 -25 29.925
      vertex 0 -20 27.425
    endloop
  endfacet
  facet normal 1 0 0
    outer loop
      vertex 0 -20 27.425
      vertex 0 -18.2322 26.6928
      vertex 0 25 29.925
    endloop
  endfacet
  facet normal 1 0 0
    outer loop
      vertex 0 -13.25 -7.775
      vertex 0 -13.25 17.625
      vertex 0 -18.2322 23.1572
    endloop
  endfacet
  facet normal 1 0 0
    outer loop
      vertex 0 -21.7678 23.1572
      vertex 0 -20 -22.425
      vertex 0 -13.25 -7.775
    endloop
  endfacet
  facet normal 1 0 0
    outer loop
      vertex 0 -17.5 24.925
      vertex 0 -18.2322 23.1572
      vertex 0 -13.25 17.625
    endloop
  endfacet
  facet normal 1 0 0
    outer loop
      vertex 0 21.7678 23.1572
      vertex 0 13.25 17.625
      vertex 0 25 -29.925
    endloop
  endfacet
  facet normal 1 0 0
    outer loop
      vertex 0 18.2322 23.1572
      vertex 0 -18.2322 26.6928
      vertex 0 13.25 17.625
    endloop
  endfacet
  facet normal 1 0 0
    outer loop
      vertex 0 22.5 -24.925
      vertex 0 21.7678 -26.6928
      vertex 0 25 -29.925
    endloop
  endfacet
  facet normal 1 0 0
    outer loop
      vertex 0 20 -27.425
      vertex 0 18.2322 -26.6928
      vertex 0 25 -29.925
    endloop
  endfacet
  facet normal 1 0 0
    outer loop
      vertex 0 -13.25 -7.775
      vertex 0 -20 -22.425
      vertex 0 18.2322 -26.6928
    endloop
  endfacet
  facet normal 1 0 0
    outer loop
      vertex 0 20 22.425
      vertex 0 18.2322 23.1572
      vertex 0 13.25 17.625
    endloop
  endfacet
  facet normal 1 0 0
    outer loop
      vertex 0 -13.25 17.625
      vertex 0 13.25 17.625
      vertex 0 -18.2322 26.6928
    endloop
  endfacet
  facet normal 1 0 0
    outer loop
      vertex 0 21.7678 -26.6928
      vertex 0 20 -27.425
      vertex 0 25 -29.925
    endloop
  endfacet
  facet normal 1 0 0
    outer loop
      vertex 0 13.25 17.625
      vertex 0 21.7678 -23.1572
      vertex 0 25 -29.925
    endloop
  endfacet
  facet normal 1 0 0
    outer loop
      vertex 0 13.25 17.625
      vertex 0 13.25 -7.775
      vertex 0 21.7678 -23.1572
    endloop
  endfacet
  facet normal 1 0 0
    outer loop
      vertex 0 21.7678 -23.1572
      vertex 0 22.5 -24.925
      vertex 0 25 -29.925
    endloop
  endfacet
  facet normal 1 0 0
    outer loop
      vertex 0 18.2322 -26.6928
      vertex 0 17.5 -24.925
      vertex 0 -13.25 -7.775
    endloop
  endfacet
  facet normal 1 0 0
    outer loop
      vertex 0 18.2322 -23.1572
      vertex 0 20 -22.425
      vertex 0 13.25 -7.775
    endloop
  endfacet
  facet normal 1 0 0
    outer loop
      vertex 0 20 -22.425
      vertex 0 21.7678 -23.1572
      vertex 0 13.25 -7.775
    endloop
  endfacet
  facet normal 1 0 0
    outer loop
      vertex 0 17.5 24.925
      vertex 0 -18.2322 26.6928
      vertex 0 18.2322 23.1572
    endloop
  endfacet
  facet normal 1 0 0
    outer loop
      vertex 0 18.2322 26.6928
      vertex 0 -18.2322 26.6928
      vertex 0 17.5 24.925
    endloop
  endfacet
  facet normal 1 0 0
    outer loop
      vertex 0 25 29.925
      vertex 0 -18.2322 26.6928
      vertex 0 18.2322 26.6928
    endloop
  endfacet
  facet normal 1 0 0
    outer loop
      vertex 0 21.7678 26.6928
      vertex 0 22.5 24.925
      vertex 0 25 29.925
    endloop
  endfacet
  facet normal 1 0 0
    outer loop
      vertex 0 25 29.925
      vertex 0 18.2322 26.6928
      vertex 0 20 27.425
    endloop
  endfacet
  facet normal 1 0 0
    outer loop
      vertex 0 25 29.925
      vertex 0 22.5 24.925
      vertex 0 25 -29.925
    endloop
  endfacet
  facet normal 1 0 0
    outer loop
      vertex 0 20 27.425
      vertex 0 21.7678 26.6928
      vertex 0 25 29.925
    endloop
  endfacet
  facet normal 1 0 0
    outer loop
      vertex 0 22.5 24.925
      vertex 0 21.7678 23.1572
      vertex 0 25 -29.925
    endloop
  endfacet
  facet normal 1 0 0
    outer loop
      vertex 0 20 22.425
      vertex 0 13.25 17.625
      vertex 0 21.7678 23.1572
    endloop
  endfacet
  facet normal 1 0 0
    outer loop
      vertex 0 -22.5 -24.925
      vertex 0 -21.7678 -23.1572
      vertex 0 -25 29.925
    endloop
  endfacet
  facet normal 1 0 0
    outer loop
      vertex 0 -22.5 24.925
      vertex 0 -21.7678 26.6928
      vertex 0 -25 29.925
    endloop
  endfacet
  facet normal 1 0 0
    outer loop
      vertex 0 -13.25 17.625
      vertex 0 -18.2322 26.6928
      vertex 0 -17.5 24.925
    endloop
  endfacet
  facet normal 1 0 0
    outer loop
      vertex 0 13.25 -7.775
      vertex 0 17.5 -24.925
      vertex 0 18.2322 -23.1572
    endloop
  endfacet
  facet normal 1 0 0
    outer loop
      vertex 0 13.25 -7.775
      vertex 0 -13.25 -7.775
      vertex 0 17.5 -24.925
    endloop
  endfacet
  facet normal 1 0 0
    outer loop
      vertex -1.5 13.25 -7.775
      vertex -1.5 13.25 17.625
      vertex -1.5 6.33333 17.625
    endloop
  endfacet
  facet normal 1 0 0
    outer loop
      vertex -1.5 4.75 4.425
      vertex -1.5 13.25 -7.775
      vertex -1.5 6.33333 4.425
    endloop
  endfacet
  facet normal 1 0 0
    outer loop
      vertex -1.5 6.33333 4.425
      vertex -1.5 13.25 -7.775
      vertex -1.5 6.33333 17.625
    endloop
  endfacet
  facet normal 1 0 0
    outer loop
      vertex -1.5 4.75 -2.575
      vertex -1.5 13.25 -7.775
      vertex -1.5 4.75 4.425
    endloop
  endfacet
  facet normal 1 0 0
    outer loop
      vertex -1.5 -4.75 -2.575
      vertex -1.5 13.25 -7.775
      vertex -1.5 4.75 -2.575
    endloop
  endfacet
  facet normal 1 0 0
    outer loop
      vertex -1.5 -13.25 -7.775
      vertex -1.5 13.25 -7.775
      vertex -1.5 -4.75 -2.575
    endloop
  endfacet
  facet normal 1 0 0
    outer loop
      vertex -1.5 -6.33333 4.425
      vertex -1.5 -4.75 -2.575
      vertex -1.5 -4.75 4.425
    endloop
  endfacet
  facet normal 1 0 0
    outer loop
      vertex -1.5 -13.25 17.625
      vertex -1.5 -4.75 -2.575
      vertex -1.5 -6.33333 4.425
    endloop
  endfacet
  facet normal 1 0 0
    outer loop
      vertex -1.5 -13.25 17.625
      vertex -1.5 -6.33333 4.425
      vertex -1.5 -6.33333 17.625
    endloop
  endfacet
  facet normal 1 0 0
    outer loop
      vertex -1.5 -13.25 -7.775
      vertex -1.5 -4.75 -2.575
      vertex -1.5 -13.25 17.625
    endloop
  endfacet
  facet normal 0 0 1
    outer loop
      vertex -1.5 -6.33333 4.425
      vertex -1.5 -4.75 4.425
      vertex -3.5 -4.75 4.425
    endloop
  endfacet
  facet normal 0 0 1
    outer loop
      vertex -3.5 -6.33333 4.425
      vertex -1.5 -6.33333 4.425
      vertex -3.5 -4.75 4.425
    endloop
  endfacet
  facet normal 1 0 0
    outer loop
      vertex -3.5 6.33333 18.125
      vertex -3.5 -4.75 6.925
      vertex -3.5 4.75 6.925
    endloop
  endfacet
  facet normal 1 0 0
    outer loop
      vertex -3.5 -4.75 4.425
      vertex -3.5 -4.75 6.925
      vertex -3.5 -6.33333 18.125
    endloop
  endfacet
  facet normal 1 0 0
    outer loop
      vertex -3.5 4.75 4.425
      vertex -3.5 6.33333 4.425
      vertex -3.5 4.75 6.925
    endloop
  endfacet
  facet normal 1 0 0
    outer loop
      vertex -3.5 6.33333 4.425
      vertex -3.5 6.33333 18.125
      vertex -3.5 4.75 6.925
    endloop
  endfacet
  facet normal 1 0 0
    outer loop
      vertex -3.5 6.33333 18.125
      vertex -3.5 -6.33333 18.125
      vertex -3.5 -4.75 6.925
    endloop
  endfacet
  facet normal 1 0 0
    outer loop
      vertex -3.5 -6.33333 18.125
      vertex -3.5 -6.33333 4.425
      vertex -3.5 -4.75 4.425
    endloop
  endfacet
  facet normal 0 0 1
    outer loop
      vertex -1.5 4.75 4.425
      vertex -1.5 6.33333 4.425
      vertex -3.5 6.33333 4.425
    endloop
  endfacet
  facet normal 0 0 1
    outer loop
      vertex -3.5 4.75 4.425
      vertex -1.5 4.75 4.425
      vertex -3.5 6.33333 4.425
    endloop
  endfacet
  facet normal 0 1 0
    outer loop
      vertex 0 -13.25 17.625
      vertex 0 -13.25 -7.775
      vertex -1.5 -13.25 17.625
    endloop
  endfacet
  facet normal 0 1 0
    outer loop
      vertex -1.5 -13.25 17.625
      vertex 0 -13.25 -7.775
      vertex -1.5 -13.25 -7.775
    endloop
  endfacet
  facet normal 0 0 1
    outer loop
      vertex 0 -13.25 -7.775
      vertex 0 13.25 -7.775
      vertex -1.5 13.25 -7.775
    endloop
  endfacet
  facet normal 0 0 1
    outer loop
      vertex -1.5 -13.25 -7.775
      vertex 0 -13.25 -7.775
      vertex -1.5 13.25 -7.775
    endloop
  endfacet
  facet normal 0 -1 0
    outer loop
      vertex 0 13.25 -7.775
      vertex 0 13.25 17.625
      vertex -1.5 13.25 17.625
    endloop
  endfacet
  facet normal 0 -1 0
    outer loop
      vertex -1.5 13.25 -7.775
      vertex 0 13.25 -7.775
      vertex -1.5 13.25 17.625
    endloop
  endfacet
  facet normal 0 0 -1
    outer loop
      vertex -1.5 13.25 17.625
      vertex -0.5 6.33333 17.625
      vertex -1.5 6.33333 17.625
    endloop
  endfacet
  facet normal 0 0 -1
    outer loop
      vertex 0 13.25 17.625
      vertex -0.5 6.33333 17.625
      vertex -1.5 13.25 17.625
    endloop
  endfacet
  facet normal 0 0 -1
    outer loop
      vertex -0.5 -6.33333 17.625
      vertex -0.5 6.33333 17.625
      vertex 0 13.25 17.625
    endloop
  endfacet
  facet normal 0 0 -1
    outer loop
      vertex -0.5 -6.33333 17.625
      vertex 0 13.25 17.625
      vertex 0 -13.25 17.625
    endloop
  endfacet
  facet normal 0 0 -1
    outer loop
      vertex -0.5 -6.33333 17.625
      vertex 0 -13.25 17.625
      vertex -1.5 -6.33333 17.625
    endloop
  endfacet
  facet normal 0 0 -1
    outer loop
      vertex 0 -13.25 17.625
      vertex -1.5 -13.25 17.625
      vertex -1.5 -6.33333 17.625
    endloop
  endfacet
  facet normal 0 1 0
    outer loop
      vertex -0.5 -6.33333 18.125
      vertex -0.5 -6.33333 17.625
      vertex -3.5 -6.33333 18.125
    endloop
  endfacet
  facet normal 0 1 0
    outer loop
      vertex -3.5 -6.33333 18.125
      vertex -0.5 -6.33333 17.625
      vertex -1.5 -6.33333 17.625
    endloop
  endfacet
  facet normal 0 1 0
    outer loop
      vertex -3.5 -6.33333 18.125
      vertex -1.5 -6.33333 17.625
      vertex -1.5 -6.33333 4.425
    endloop
  endfacet
  facet normal 0 1 0
    outer loop
      vertex -3.5 -6.33333 18.125
      vertex -1.5 -6.33333 4.425
      vertex -3.5 -6.33333 4.425
    endloop
  endfacet
  facet normal 0 -1 0
    outer loop
      vertex -0.5 6.33333 18.125
      vertex -1.5 6.33333 17.625
      vertex -0.5 6.33333 17.625
    endloop
  endfacet
  facet normal 0 -1 0
    outer loop
      vertex -3.5 6.33333 18.125
      vertex -1.5 6.33333 17.625
      vertex -0.5 6.33333 18.125
    endloop
  endfacet
  facet normal 0 -1 0
    outer loop
      vertex -1.5 6.33333 4.425
      vertex -1.5 6.33333 17.625
      vertex -3.5 6.33333 18.125
    endloop
  endfacet
  facet normal 0 -1 0
    outer loop
      vertex -3.5 6.33333 4.425
      vertex -1.5 6.33333 4.425
      vertex -3.5 6.33333 18.125
    endloop
  endfacet
  facet normal 0 0 -1
    outer loop
      vertex -0.5 6.33333 18.125
      vertex -0.5 -6.33333 18.125
      vertex -3.5 6.33333 18.125
    endloop
  endfacet
  facet normal 0 0 -1
    outer loop
      vertex -3.5 6.33333 18.125
      vertex -0.5 -6.33333 18.125
      vertex -3.5 -6.33333 18.125
    endloop
  endfacet
  facet normal -1 0 0
    outer loop
      vertex -0.5 6.33333 18.125
      vertex -0.5 6.33333 17.625
      vertex -0.5 -6.33333 18.125
    endloop
  endfacet
  facet normal -1 0 0
    outer loop
      vertex -0.5 -6.33333 18.125
      vertex -0.5 6.33333 17.625
      vertex -0.5 -6.33333 17.625
    endloop
  endfacet
endsolid OpenSCAD_Model
