solid OpenSCAD_Model
  facet normal -1 0 -2.22045e-16
    outer loop
      vertex -30 0 26.3625
      vertex -30 4.96909 25.8402
      vertex -30 -4.96909 25.8402
    endloop
  endfacet
  facet normal -1 0 -2.22045e-16
    outer loop
      vertex -30 -4.96909 25.8402
      vertex -30 4.96909 25.8402
      vertex -30 9.72101 24.2962
    endloop
  endfacet
  facet normal -1 0 -2.22045e-16
    outer loop
      vertex -30 4.55327 23.8839
      vertex -30 9.72101 24.2962
      vertex -30 14.0481 21.798
    endloop
  endfacet
  facet normal -1 0 -2.22045e-16
    outer loop
      vertex -30 12.8725 20.18
      vertex -30 14.0481 21.798
      vertex -30 17.7612 18.4547
    endloop
  endfacet
  facet normal -1 0 -2.22045e-16
    outer loop
      vertex -30 16.2749 17.1165
      vertex -30 17.7612 18.4547
      vertex -30 20.698 14.4125
    endloop
  endfacet
  facet normal -1 0 -2.22045e-16
    outer loop
      vertex -30 18.966 13.4125
      vertex -30 20.698 14.4125
      vertex -30 22.7303 9.84801
    endloop
  endfacet
  facet normal -1 0 -2.22045e-16
    outer loop
      vertex -30 20.8281 9.22997
      vertex -30 22.7303 9.84801
      vertex -30 23.7691 4.96073
    endloop
  endfacet
  facet normal -1 0 -2.22045e-16
    outer loop
      vertex -30 21.78 4.75167
      vertex -30 23.7691 4.96073
      vertex -30 23.7691 -0.03573
    endloop
  endfacet
  facet normal -1 0 -2.22045e-16
    outer loop
      vertex -30 21.78 0.173327
      vertex -30 23.7691 -0.03573
      vertex -30 22.7303 -4.92301
    endloop
  endfacet
  facet normal -1 0 -2.22045e-16
    outer loop
      vertex -30 20.8281 -4.30497
      vertex -30 22.7303 -4.92301
      vertex -30 20.698 -9.4875
    endloop
  endfacet
  facet normal -1 0 -2.22045e-16
    outer loop
      vertex -30 18.966 -8.4875
      vertex -30 20.698 -9.4875
      vertex -30 17.7612 -13.5297
    endloop
  endfacet
  facet normal -1 0 -2.22045e-16
    outer loop
      vertex -30 16.2749 -12.1915
      vertex -30 17.7612 -13.5297
      vertex -30 14.0481 -16.873
    endloop
  endfacet
  facet normal -1 0 -2.22045e-16
    outer loop
      vertex -30 12.8725 -15.255
      vertex -30 14.0481 -16.873
      vertex -30 9.72101 -19.3712
    endloop
  endfacet
  facet normal -1 0 -2.22045e-16
    outer loop
      vertex -30 4.55327 -18.9589
      vertex -30 9.72101 -19.3712
      vertex -30 4.96909 -20.9152
    endloop
  endfacet
  facet normal -1 0 -2.22045e-16
    outer loop
      vertex -30 0 -19.4375
      vertex -30 4.96909 -20.9152
      vertex -30 0 -21.4375
    endloop
  endfacet
  facet normal -1 0 -2.22045e-16
    outer loop
      vertex -30 -4.55327 -18.9589
      vertex -30 0 -21.4375
      vertex -30 -4.96909 -20.9152
    endloop
  endfacet
  facet normal -1 0 -2.22045e-16
    outer loop
      vertex -30 -8.90753 -17.5441
      vertex -30 -4.96909 -20.9152
      vertex -30 -9.72101 -19.3712
    endloop
  endfacet
  facet normal -1 0 -2.22045e-16
    outer loop
      vertex -30 -12.8725 -15.255
      vertex -30 -9.72101 -19.3712
      vertex -30 -14.0481 -16.873
    endloop
  endfacet
  facet normal -1 0 -2.22045e-16
    outer loop
      vertex -30 -16.2749 -12.1915
      vertex -30 -14.0481 -16.873
      vertex -30 -17.7612 -13.5297
    endloop
  endfacet
  facet normal -1 0 -2.22045e-16
    outer loop
      vertex -30 -18.966 -8.4875
      vertex -30 -17.7612 -13.5297
      vertex -30 -20.698 -9.4875
    endloop
  endfacet
  facet normal -1 0 -2.22045e-16
    outer loop
      vertex -30 -20.8281 -4.30497
      vertex -30 -20.698 -9.4875
      vertex -30 -22.7303 -4.92301
    endloop
  endfacet
  facet normal -1 0 -2.22045e-16
    outer loop
      vertex -30 -21.78 0.173327
      vertex -30 -22.7303 -4.92301
      vertex -30 -23.7691 -0.03573
    endloop
  endfacet
  facet normal -1 0 -2.22045e-16
    outer loop
      vertex -30 -21.78 4.75167
      vertex -30 -23.7691 -0.03573
      vertex -30 -23.7691 4.96073
    endloop
  endfacet
  facet normal -1 0 -2.22045e-16
    outer loop
      vertex -30 -20.8281 9.22997
      vertex -30 -23.7691 4.96073
      vertex -30 -22.7303 9.84801
    endloop
  endfacet
  facet normal -1 0 -2.22045e-16
    outer loop
      vertex -30 -16.2749 17.1165
      vertex -30 -22.7303 9.84801
      vertex -30 -20.698 14.4125
    endloop
  endfacet
  facet normal -1 0 -2.22045e-16
    outer loop
      vertex -30 -12.8725 20.18
      vertex -30 -20.698 14.4125
      vertex -30 -17.7612 18.4547
    endloop
  endfacet
  facet normal -1 0 -2.22045e-16
    outer loop
      vertex -30 -4.96909 25.8402
      vertex -30 -17.7612 18.4547
      vertex -30 -14.0481 21.798
    endloop
  endfacet
  facet normal -1 0 -2.22045e-16
    outer loop
      vertex -30 -4.96909 25.8402
      vertex -30 -14.0481 21.798
      vertex -30 -9.72101 24.2962
    endloop
  endfacet
  facet normal -1 0 -2.22045e-16
    outer loop
      vertex -30 -4.55327 23.8839
      vertex -30 -4.96909 25.8402
      vertex -30 0 24.3625
    endloop
  endfacet
  facet normal -1 0 -2.22045e-16
    outer loop
      vertex -30 -8.90753 22.4691
      vertex -30 -4.96909 25.8402
      vertex -30 -4.55327 23.8839
    endloop
  endfacet
  facet normal -1 0 -2.22045e-16
    outer loop
      vertex -30 -12.8725 20.18
      vertex -30 -4.96909 25.8402
      vertex -30 -8.90753 22.4691
    endloop
  endfacet
  facet normal -1 0 -2.22045e-16
    outer loop
      vertex -30 -16.2749 17.1165
      vertex -30 -20.698 14.4125
      vertex -30 -12.8725 20.18
    endloop
  endfacet
  facet normal -1 0 -2.22045e-16
    outer loop
      vertex -30 -4.96909 25.8402
      vertex -30 -12.8725 20.18
      vertex -30 -17.7612 18.4547
    endloop
  endfacet
  facet normal -1 0 -2.22045e-16
    outer loop
      vertex -30 -18.966 13.4125
      vertex -30 -22.7303 9.84801
      vertex -30 -16.2749 17.1165
    endloop
  endfacet
  facet normal -1 0 -2.22045e-16
    outer loop
      vertex -30 -20.8281 9.22997
      vertex -30 -22.7303 9.84801
      vertex -30 -18.966 13.4125
    endloop
  endfacet
  facet normal -1 0 -2.22045e-16
    outer loop
      vertex -30 4.55327 -18.9589
      vertex -30 4.96909 -20.9152
      vertex -30 0 -19.4375
    endloop
  endfacet
  facet normal -1 0 -2.22045e-16
    outer loop
      vertex -30 8.90753 -17.5441
      vertex -30 9.72101 -19.3712
      vertex -30 4.55327 -18.9589
    endloop
  endfacet
  facet normal -1 0 -2.22045e-16
    outer loop
      vertex -30 0 -19.4375
      vertex -30 0 -21.4375
      vertex -30 -4.55327 -18.9589
    endloop
  endfacet
  facet normal -1 0 -2.22045e-16
    outer loop
      vertex -30 -4.55327 -18.9589
      vertex -30 -4.96909 -20.9152
      vertex -30 -8.90753 -17.5441
    endloop
  endfacet
  facet normal -1 0 -2.22045e-16
    outer loop
      vertex -30 -8.90753 -17.5441
      vertex -30 -9.72101 -19.3712
      vertex -30 -12.8725 -15.255
    endloop
  endfacet
  facet normal -1 0 -2.22045e-16
    outer loop
      vertex -30 -12.8725 -15.255
      vertex -30 -14.0481 -16.873
      vertex -30 -16.2749 -12.1915
    endloop
  endfacet
  facet normal -1 0 -2.22045e-16
    outer loop
      vertex -30 -16.2749 -12.1915
      vertex -30 -17.7612 -13.5297
      vertex -30 -18.966 -8.4875
    endloop
  endfacet
  facet normal -1 0 -2.22045e-16
    outer loop
      vertex -30 -18.966 -8.4875
      vertex -30 -20.698 -9.4875
      vertex -30 -20.8281 -4.30497
    endloop
  endfacet
  facet normal -1 0 -2.22045e-16
    outer loop
      vertex -30 -20.8281 -4.30497
      vertex -30 -22.7303 -4.92301
      vertex -30 -21.78 0.173327
    endloop
  endfacet
  facet normal -1 0 -2.22045e-16
    outer loop
      vertex -30 -21.78 0.173327
      vertex -30 -23.7691 -0.03573
      vertex -30 -21.78 4.75167
    endloop
  endfacet
  facet normal -1 0 -2.22045e-16
    outer loop
      vertex -30 -21.78 4.75167
      vertex -30 -23.7691 4.96073
      vertex -30 -20.8281 9.22997
    endloop
  endfacet
  facet normal -1 0 -2.22045e-16
    outer loop
      vertex -30 8.90753 22.4691
      vertex -30 14.0481 21.798
      vertex -30 12.8725 20.18
    endloop
  endfacet
  facet normal -1 0 -2.22045e-16
    outer loop
      vertex -30 4.55327 23.8839
      vertex -30 14.0481 21.798
      vertex -30 8.90753 22.4691
    endloop
  endfacet
  facet normal -1 0 -2.22045e-16
    outer loop
      vertex -30 -4.96909 25.8402
      vertex -30 9.72101 24.2962
      vertex -30 4.55327 23.8839
    endloop
  endfacet
  facet normal -1 0 -2.22045e-16
    outer loop
      vertex -30 0 24.3625
      vertex -30 -4.96909 25.8402
      vertex -30 4.55327 23.8839
    endloop
  endfacet
  facet normal -1 0 -2.22045e-16
    outer loop
      vertex -30 12.8725 20.18
      vertex -30 17.7612 18.4547
      vertex -30 16.2749 17.1165
    endloop
  endfacet
  facet normal -1 0 -2.22045e-16
    outer loop
      vertex -30 16.2749 17.1165
      vertex -30 20.698 14.4125
      vertex -30 18.966 13.4125
    endloop
  endfacet
  facet normal -1 0 -2.22045e-16
    outer loop
      vertex -30 18.966 13.4125
      vertex -30 22.7303 9.84801
      vertex -30 20.8281 9.22997
    endloop
  endfacet
  facet normal -1 0 -2.22045e-16
    outer loop
      vertex -30 20.8281 9.22997
      vertex -30 23.7691 4.96073
      vertex -30 21.78 4.75167
    endloop
  endfacet
  facet normal -1 0 -2.22045e-16
    outer loop
      vertex -30 21.78 4.75167
      vertex -30 23.7691 -0.03573
      vertex -30 21.78 0.173327
    endloop
  endfacet
  facet normal -1 0 -2.22045e-16
    outer loop
      vertex -30 21.78 0.173327
      vertex -30 22.7303 -4.92301
      vertex -30 20.8281 -4.30497
    endloop
  endfacet
  facet normal -1 0 -2.22045e-16
    outer loop
      vertex -30 20.8281 -4.30497
      vertex -30 20.698 -9.4875
      vertex -30 18.966 -8.4875
    endloop
  endfacet
  facet normal -1 0 -2.22045e-16
    outer loop
      vertex -30 18.966 -8.4875
      vertex -30 17.7612 -13.5297
      vertex -30 16.2749 -12.1915
    endloop
  endfacet
  facet normal -1 0 -2.22045e-16
    outer loop
      vertex -30 16.2749 -12.1915
      vertex -30 14.0481 -16.873
      vertex -30 12.8725 -15.255
    endloop
  endfacet
  facet normal -1 0 -2.22045e-16
    outer loop
      vertex -30 12.8725 -15.255
      vertex -30 9.72101 -19.3712
      vertex -30 8.90753 -17.5441
    endloop
  endfacet
  facet normal -2.20828e-16 0.104528 0.994522
    outer loop
      vertex -30 4.96909 25.8402
      vertex -30 0 26.3625
      vertex -6 0 26.3625
    endloop
  endfacet
  facet normal -2.20828e-16 0.104528 0.994522
    outer loop
      vertex -6 4.96909 25.8402
      vertex -30 4.96909 25.8402
      vertex -6 0 26.3625
    endloop
  endfacet
  facet normal -2.20828e-16 -0.104528 0.994522
    outer loop
      vertex -6 0 26.3625
      vertex -30 0 26.3625
      vertex -30 -4.96909 25.8402
    endloop
  endfacet
  facet normal -2.20828e-16 -0.104528 0.994522
    outer loop
      vertex -6 -4.96909 25.8402
      vertex -6 0 26.3625
      vertex -30 -4.96909 25.8402
    endloop
  endfacet
  facet normal -2.11177e-16 -0.309017 0.951056
    outer loop
      vertex -6 -4.96909 25.8402
      vertex -30 -4.96909 25.8402
      vertex -30 -9.72101 24.2962
    endloop
  endfacet
  facet normal -2.11177e-16 -0.309017 0.951056
    outer loop
      vertex -6 -9.72101 24.2962
      vertex -6 -4.96909 25.8402
      vertex -30 -9.72101 24.2962
    endloop
  endfacet
  facet normal -1.92296e-16 -0.5 0.866025
    outer loop
      vertex -6 -9.72101 24.2962
      vertex -30 -9.72101 24.2962
      vertex -30 -14.0481 21.798
    endloop
  endfacet
  facet normal -1.92296e-16 -0.5 0.866025
    outer loop
      vertex -6 -14.0481 21.798
      vertex -6 -9.72101 24.2962
      vertex -30 -14.0481 21.798
    endloop
  endfacet
  facet normal -1.65011e-16 -0.669131 0.743145
    outer loop
      vertex -6 -14.0481 21.798
      vertex -30 -14.0481 21.798
      vertex -30 -17.7612 18.4547
    endloop
  endfacet
  facet normal -1.65011e-16 -0.669131 0.743145
    outer loop
      vertex -6 -17.7612 18.4547
      vertex -6 -14.0481 21.798
      vertex -30 -17.7612 18.4547
    endloop
  endfacet
  facet normal -1.30515e-16 -0.809017 0.587785
    outer loop
      vertex -6 -17.7612 18.4547
      vertex -30 -17.7612 18.4547
      vertex -30 -20.698 14.4125
    endloop
  endfacet
  facet normal -1.30515e-16 -0.809017 0.587785
    outer loop
      vertex -6 -20.698 14.4125
      vertex -6 -17.7612 18.4547
      vertex -30 -20.698 14.4125
    endloop
  endfacet
  facet normal -9.03137e-17 -0.913545 0.406737
    outer loop
      vertex -6 -20.698 14.4125
      vertex -30 -20.698 14.4125
      vertex -30 -22.7303 9.84801
    endloop
  endfacet
  facet normal -9.03137e-17 -0.913545 0.406737
    outer loop
      vertex -6 -22.7303 9.84801
      vertex -6 -20.698 14.4125
      vertex -30 -22.7303 9.84801
    endloop
  endfacet
  facet normal -4.61656e-17 -0.978148 0.207912
    outer loop
      vertex -6 -22.7303 9.84801
      vertex -30 -22.7303 9.84801
      vertex -30 -23.7691 4.96073
    endloop
  endfacet
  facet normal -4.61656e-17 -0.978148 0.207912
    outer loop
      vertex -6 -23.7691 4.96073
      vertex -6 -22.7303 9.84801
      vertex -30 -23.7691 4.96073
    endloop
  endfacet
  facet normal 0 -1 0
    outer loop
      vertex -6 -23.7691 4.96073
      vertex -30 -23.7691 4.96073
      vertex -30 -23.7691 -0.03573
    endloop
  endfacet
  facet normal 0 -1 0
    outer loop
      vertex -6 -23.7691 2.4625
      vertex -6 -23.7691 4.96073
      vertex -6 -23.7691 -0.03573
    endloop
  endfacet
  facet normal 0 -1 0
    outer loop
      vertex -6 -23.7691 -0.03573
      vertex -6 -23.7691 4.96073
      vertex -30 -23.7691 -0.03573
    endloop
  endfacet
  facet normal 4.61656e-17 -0.978148 -0.207912
    outer loop
      vertex -6 -23.7691 -0.03573
      vertex -30 -23.7691 -0.03573
      vertex -30 -22.7303 -4.92301
    endloop
  endfacet
  facet normal 4.61656e-17 -0.978148 -0.207912
    outer loop
      vertex -6 -22.7303 -4.92301
      vertex -6 -23.7691 -0.03573
      vertex -30 -22.7303 -4.92301
    endloop
  endfacet
  facet normal 9.03137e-17 -0.913545 -0.406737
    outer loop
      vertex -6 -22.7303 -4.92301
      vertex -30 -22.7303 -4.92301
      vertex -30 -20.698 -9.4875
    endloop
  endfacet
  facet normal 9.03137e-17 -0.913545 -0.406737
    outer loop
      vertex -6 -20.698 -9.4875
      vertex -6 -22.7303 -4.92301
      vertex -30 -20.698 -9.4875
    endloop
  endfacet
  facet normal 1.30515e-16 -0.809017 -0.587785
    outer loop
      vertex -6 -20.698 -9.4875
      vertex -30 -20.698 -9.4875
      vertex -30 -17.7612 -13.5297
    endloop
  endfacet
  facet normal 1.30515e-16 -0.809017 -0.587785
    outer loop
      vertex -6 -17.7612 -13.5297
      vertex -6 -20.698 -9.4875
      vertex -30 -17.7612 -13.5297
    endloop
  endfacet
  facet normal 1.65011e-16 -0.669131 -0.743145
    outer loop
      vertex -30 -17.7612 -13.5297
      vertex -30 -14.0481 -16.873
      vertex -6 -17.7612 -13.5297
    endloop
  endfacet
  facet normal 1.65011e-16 -0.669131 -0.743145
    outer loop
      vertex -6 -17.7612 -13.5297
      vertex -30 -14.0481 -16.873
      vertex -6 -14.0481 -16.873
    endloop
  endfacet
  facet normal 1.92296e-16 -0.5 -0.866025
    outer loop
      vertex -30 -14.0481 -16.873
      vertex -30 -9.72101 -19.3712
      vertex -6 -14.0481 -16.873
    endloop
  endfacet
  facet normal 1.92296e-16 -0.5 -0.866025
    outer loop
      vertex -6 -14.0481 -16.873
      vertex -30 -9.72101 -19.3712
      vertex -6 -9.72101 -19.3712
    endloop
  endfacet
  facet normal 2.11177e-16 -0.309017 -0.951056
    outer loop
      vertex -30 -9.72101 -19.3712
      vertex -30 -4.96909 -20.9152
      vertex -6 -9.72101 -19.3712
    endloop
  endfacet
  facet normal 2.11177e-16 -0.309017 -0.951056
    outer loop
      vertex -6 -9.72101 -19.3712
      vertex -30 -4.96909 -20.9152
      vertex -6 -4.96909 -20.9152
    endloop
  endfacet
  facet normal 2.20828e-16 -0.104528 -0.994522
    outer loop
      vertex -30 -4.96909 -20.9152
      vertex -30 0 -21.4375
      vertex -6 -4.96909 -20.9152
    endloop
  endfacet
  facet normal 2.20828e-16 -0.104528 -0.994522
    outer loop
      vertex -6 -4.96909 -20.9152
      vertex -30 0 -21.4375
      vertex -6 0 -21.4375
    endloop
  endfacet
  facet normal 2.20828e-16 0.104528 -0.994522
    outer loop
      vertex -30 4.96909 -20.9152
      vertex -6 4.96909 -20.9152
      vertex -30 0 -21.4375
    endloop
  endfacet
  facet normal 2.20828e-16 0.104528 -0.994522
    outer loop
      vertex -30 0 -21.4375
      vertex -6 4.96909 -20.9152
      vertex -6 0 -21.4375
    endloop
  endfacet
  facet normal 2.11177e-16 0.309017 -0.951056
    outer loop
      vertex -30 9.72101 -19.3712
      vertex -6 9.72101 -19.3712
      vertex -30 4.96909 -20.9152
    endloop
  endfacet
  facet normal 2.11177e-16 0.309017 -0.951056
    outer loop
      vertex -30 4.96909 -20.9152
      vertex -6 9.72101 -19.3712
      vertex -6 4.96909 -20.9152
    endloop
  endfacet
  facet normal 1.92296e-16 0.5 -0.866025
    outer loop
      vertex -30 14.0481 -16.873
      vertex -6 14.0481 -16.873
      vertex -30 9.72101 -19.3712
    endloop
  endfacet
  facet normal 1.92296e-16 0.5 -0.866025
    outer loop
      vertex -30 9.72101 -19.3712
      vertex -6 14.0481 -16.873
      vertex -6 9.72101 -19.3712
    endloop
  endfacet
  facet normal 1.65011e-16 0.669131 -0.743145
    outer loop
      vertex -30 17.7612 -13.5297
      vertex -6 17.7612 -13.5297
      vertex -30 14.0481 -16.873
    endloop
  endfacet
  facet normal 1.65011e-16 0.669131 -0.743145
    outer loop
      vertex -30 14.0481 -16.873
      vertex -6 17.7612 -13.5297
      vertex -6 14.0481 -16.873
    endloop
  endfacet
  facet normal 1.30515e-16 0.809017 -0.587785
    outer loop
      vertex -30 20.698 -9.4875
      vertex -6 20.698 -9.4875
      vertex -30 17.7612 -13.5297
    endloop
  endfacet
  facet normal 1.30515e-16 0.809017 -0.587785
    outer loop
      vertex -30 17.7612 -13.5297
      vertex -6 20.698 -9.4875
      vertex -6 17.7612 -13.5297
    endloop
  endfacet
  facet normal 9.03137e-17 0.913545 -0.406737
    outer loop
      vertex -30 22.7303 -4.92301
      vertex -6 22.7303 -4.92301
      vertex -30 20.698 -9.4875
    endloop
  endfacet
  facet normal 9.03137e-17 0.913545 -0.406737
    outer loop
      vertex -30 20.698 -9.4875
      vertex -6 22.7303 -4.92301
      vertex -6 20.698 -9.4875
    endloop
  endfacet
  facet normal 4.61656e-17 0.978148 -0.207912
    outer loop
      vertex -30 23.7691 -0.03573
      vertex -6 23.7691 -0.03573
      vertex -30 22.7303 -4.92301
    endloop
  endfacet
  facet normal 4.61656e-17 0.978148 -0.207912
    outer loop
      vertex -30 22.7303 -4.92301
      vertex -6 23.7691 -0.03573
      vertex -6 22.7303 -4.92301
    endloop
  endfacet
  facet normal 0 1 0
    outer loop
      vertex -30 23.7691 4.96073
      vertex -6 23.7691 4.96073
      vertex -30 23.7691 -0.03573
    endloop
  endfacet
  facet normal 0 1 0
    outer loop
      vertex -30 23.7691 -0.03573
      vertex -6 23.7691 4.96073
      vertex -6 23.7691 2.4625
    endloop
  endfacet
  facet normal 0 1 0
    outer loop
      vertex -30 23.7691 -0.03573
      vertex -6 23.7691 2.4625
      vertex -6 23.7691 -0.03573
    endloop
  endfacet
  facet normal -4.61656e-17 0.978148 0.207912
    outer loop
      vertex -30 22.7303 9.84801
      vertex -6 22.7303 9.84801
      vertex -30 23.7691 4.96073
    endloop
  endfacet
  facet normal -4.61656e-17 0.978148 0.207912
    outer loop
      vertex -30 23.7691 4.96073
      vertex -6 22.7303 9.84801
      vertex -6 23.7691 4.96073
    endloop
  endfacet
  facet normal -9.03137e-17 0.913545 0.406737
    outer loop
      vertex -30 20.698 14.4125
      vertex -6 20.698 14.4125
      vertex -30 22.7303 9.84801
    endloop
  endfacet
  facet normal -9.03137e-17 0.913545 0.406737
    outer loop
      vertex -30 22.7303 9.84801
      vertex -6 20.698 14.4125
      vertex -6 22.7303 9.84801
    endloop
  endfacet
  facet normal -1.30515e-16 0.809017 0.587785
    outer loop
      vertex -30 17.7612 18.4547
      vertex -6 17.7612 18.4547
      vertex -30 20.698 14.4125
    endloop
  endfacet
  facet normal -1.30515e-16 0.809017 0.587785
    outer loop
      vertex -30 20.698 14.4125
      vertex -6 17.7612 18.4547
      vertex -6 20.698 14.4125
    endloop
  endfacet
  facet normal -1.65011e-16 0.669131 0.743145
    outer loop
      vertex -30 17.7612 18.4547
      vertex -30 14.0481 21.798
      vertex -6 14.0481 21.798
    endloop
  endfacet
  facet normal -1.65011e-16 0.669131 0.743145
    outer loop
      vertex -6 17.7612 18.4547
      vertex -30 17.7612 18.4547
      vertex -6 14.0481 21.798
    endloop
  endfacet
  facet normal -1.92296e-16 0.5 0.866025
    outer loop
      vertex -30 14.0481 21.798
      vertex -30 9.72101 24.2962
      vertex -6 9.72101 24.2962
    endloop
  endfacet
  facet normal -1.92296e-16 0.5 0.866025
    outer loop
      vertex -6 14.0481 21.798
      vertex -30 14.0481 21.798
      vertex -6 9.72101 24.2962
    endloop
  endfacet
  facet normal -2.11177e-16 0.309017 0.951056
    outer loop
      vertex -30 9.72101 24.2962
      vertex -30 4.96909 25.8402
      vertex -6 4.96909 25.8402
    endloop
  endfacet
  facet normal -2.11177e-16 0.309017 0.951056
    outer loop
      vertex -6 9.72101 24.2962
      vertex -30 9.72101 24.2962
      vertex -6 4.96909 25.8402
    endloop
  endfacet
  facet normal 2.20828e-16 -0.104529 -0.994522
    outer loop
      vertex -6 4.55327 23.8839
      vertex -6 0 24.3625
      vertex -30 4.55327 23.8839
    endloop
  endfacet
  facet normal 2.20828e-16 -0.104529 -0.994522
    outer loop
      vertex -30 4.55327 23.8839
      vertex -6 0 24.3625
      vertex -30 0 24.3625
    endloop
  endfacet
  facet normal 2.20828e-16 0.104529 -0.994522
    outer loop
      vertex -6 -4.55327 23.8839
      vertex -30 -4.55327 23.8839
      vertex -6 0 24.3625
    endloop
  endfacet
  facet normal 2.20828e-16 0.104529 -0.994522
    outer loop
      vertex -6 0 24.3625
      vertex -30 -4.55327 23.8839
      vertex -30 0 24.3625
    endloop
  endfacet
  facet normal 2.11177e-16 -0.309017 -0.951057
    outer loop
      vertex -6 8.90753 22.4691
      vertex -6 4.55327 23.8839
      vertex -30 8.90753 22.4691
    endloop
  endfacet
  facet normal 2.11177e-16 -0.309017 -0.951057
    outer loop
      vertex -30 8.90753 22.4691
      vertex -6 4.55327 23.8839
      vertex -30 4.55327 23.8839
    endloop
  endfacet
  facet normal 1.92296e-16 -0.5 -0.866025
    outer loop
      vertex -6 12.8725 20.18
      vertex -6 8.90753 22.4691
      vertex -30 12.8725 20.18
    endloop
  endfacet
  facet normal 1.92296e-16 -0.5 -0.866025
    outer loop
      vertex -30 12.8725 20.18
      vertex -6 8.90753 22.4691
      vertex -30 8.90753 22.4691
    endloop
  endfacet
  facet normal 1.65011e-16 -0.669131 -0.743145
    outer loop
      vertex -6 16.2749 17.1165
      vertex -6 12.8725 20.18
      vertex -30 16.2749 17.1165
    endloop
  endfacet
  facet normal 1.65011e-16 -0.669131 -0.743145
    outer loop
      vertex -30 16.2749 17.1165
      vertex -6 12.8725 20.18
      vertex -30 12.8725 20.18
    endloop
  endfacet
  facet normal 1.30515e-16 -0.809017 -0.587785
    outer loop
      vertex -30 18.966 13.4125
      vertex -6 18.966 13.4125
      vertex -6 16.2749 17.1165
    endloop
  endfacet
  facet normal 1.30515e-16 -0.809017 -0.587785
    outer loop
      vertex -30 16.2749 17.1165
      vertex -30 18.966 13.4125
      vertex -6 16.2749 17.1165
    endloop
  endfacet
  facet normal 9.03137e-17 -0.913545 -0.406737
    outer loop
      vertex -30 20.8281 9.22997
      vertex -6 20.8281 9.22997
      vertex -6 18.966 13.4125
    endloop
  endfacet
  facet normal 9.03137e-17 -0.913545 -0.406737
    outer loop
      vertex -30 18.966 13.4125
      vertex -30 20.8281 9.22997
      vertex -6 18.966 13.4125
    endloop
  endfacet
  facet normal 4.61657e-17 -0.978148 -0.207912
    outer loop
      vertex -30 21.78 4.75167
      vertex -6 21.78 4.75167
      vertex -6 20.8281 9.22997
    endloop
  endfacet
  facet normal 4.61657e-17 -0.978148 -0.207912
    outer loop
      vertex -30 20.8281 9.22997
      vertex -30 21.78 4.75167
      vertex -6 20.8281 9.22997
    endloop
  endfacet
  facet normal 0 -1 0
    outer loop
      vertex -30 21.78 0.173327
      vertex -6 21.78 0.173327
      vertex -6 21.78 2.4625
    endloop
  endfacet
  facet normal 0 -1 0
    outer loop
      vertex -30 21.78 4.75167
      vertex -30 21.78 0.173327
      vertex -6 21.78 4.75167
    endloop
  endfacet
  facet normal 0 -1 0
    outer loop
      vertex -6 21.78 4.75167
      vertex -30 21.78 0.173327
      vertex -6 21.78 2.4625
    endloop
  endfacet
  facet normal -4.61657e-17 -0.978148 0.207912
    outer loop
      vertex -30 20.8281 -4.30497
      vertex -6 20.8281 -4.30497
      vertex -6 21.78 0.173327
    endloop
  endfacet
  facet normal -4.61657e-17 -0.978148 0.207912
    outer loop
      vertex -30 21.78 0.173327
      vertex -30 20.8281 -4.30497
      vertex -6 21.78 0.173327
    endloop
  endfacet
  facet normal -9.03137e-17 -0.913545 0.406737
    outer loop
      vertex -30 18.966 -8.4875
      vertex -6 18.966 -8.4875
      vertex -6 20.8281 -4.30497
    endloop
  endfacet
  facet normal -9.03137e-17 -0.913545 0.406737
    outer loop
      vertex -30 20.8281 -4.30497
      vertex -30 18.966 -8.4875
      vertex -6 20.8281 -4.30497
    endloop
  endfacet
  facet normal -1.30515e-16 -0.809017 0.587785
    outer loop
      vertex -30 16.2749 -12.1915
      vertex -6 16.2749 -12.1915
      vertex -6 18.966 -8.4875
    endloop
  endfacet
  facet normal -1.30515e-16 -0.809017 0.587785
    outer loop
      vertex -30 18.966 -8.4875
      vertex -30 16.2749 -12.1915
      vertex -6 18.966 -8.4875
    endloop
  endfacet
  facet normal -1.65011e-16 -0.669131 0.743145
    outer loop
      vertex -30 12.8725 -15.255
      vertex -6 12.8725 -15.255
      vertex -6 16.2749 -12.1915
    endloop
  endfacet
  facet normal -1.65011e-16 -0.669131 0.743145
    outer loop
      vertex -30 16.2749 -12.1915
      vertex -30 12.8725 -15.255
      vertex -6 16.2749 -12.1915
    endloop
  endfacet
  facet normal -1.92296e-16 -0.5 0.866025
    outer loop
      vertex -30 8.90753 -17.5441
      vertex -6 8.90753 -17.5441
      vertex -6 12.8725 -15.255
    endloop
  endfacet
  facet normal -1.92296e-16 -0.5 0.866025
    outer loop
      vertex -30 12.8725 -15.255
      vertex -30 8.90753 -17.5441
      vertex -6 12.8725 -15.255
    endloop
  endfacet
  facet normal -2.11177e-16 -0.309017 0.951057
    outer loop
      vertex -30 4.55327 -18.9589
      vertex -6 4.55327 -18.9589
      vertex -6 8.90753 -17.5441
    endloop
  endfacet
  facet normal -2.11177e-16 -0.309017 0.951057
    outer loop
      vertex -30 8.90753 -17.5441
      vertex -30 4.55327 -18.9589
      vertex -6 8.90753 -17.5441
    endloop
  endfacet
  facet normal -2.20828e-16 -0.104529 0.994522
    outer loop
      vertex -30 0 -19.4375
      vertex -6 0 -19.4375
      vertex -6 4.55327 -18.9589
    endloop
  endfacet
  facet normal -2.20828e-16 -0.104529 0.994522
    outer loop
      vertex -30 4.55327 -18.9589
      vertex -30 0 -19.4375
      vertex -6 4.55327 -18.9589
    endloop
  endfacet
  facet normal -2.20828e-16 0.104529 0.994522
    outer loop
      vertex -6 -4.55327 -18.9589
      vertex -6 0 -19.4375
      vertex -30 0 -19.4375
    endloop
  endfacet
  facet normal -2.20828e-16 0.104529 0.994522
    outer loop
      vertex -30 -4.55327 -18.9589
      vertex -6 -4.55327 -18.9589
      vertex -30 0 -19.4375
    endloop
  endfacet
  facet normal -2.11177e-16 0.309017 0.951057
    outer loop
      vertex -6 -8.90753 -17.5441
      vertex -6 -4.55327 -18.9589
      vertex -30 -4.55327 -18.9589
    endloop
  endfacet
  facet normal -2.11177e-16 0.309017 0.951057
    outer loop
      vertex -30 -8.90753 -17.5441
      vertex -6 -8.90753 -17.5441
      vertex -30 -4.55327 -18.9589
    endloop
  endfacet
  facet normal -1.92296e-16 0.5 0.866025
    outer loop
      vertex -6 -12.8725 -15.255
      vertex -6 -8.90753 -17.5441
      vertex -30 -8.90753 -17.5441
    endloop
  endfacet
  facet normal -1.92296e-16 0.5 0.866025
    outer loop
      vertex -30 -12.8725 -15.255
      vertex -6 -12.8725 -15.255
      vertex -30 -8.90753 -17.5441
    endloop
  endfacet
  facet normal -1.65011e-16 0.669131 0.743145
    outer loop
      vertex -6 -16.2749 -12.1915
      vertex -6 -12.8725 -15.255
      vertex -30 -12.8725 -15.255
    endloop
  endfacet
  facet normal -1.65011e-16 0.669131 0.743145
    outer loop
      vertex -30 -16.2749 -12.1915
      vertex -6 -16.2749 -12.1915
      vertex -30 -12.8725 -15.255
    endloop
  endfacet
  facet normal -1.30515e-16 0.809017 0.587785
    outer loop
      vertex -6 -16.2749 -12.1915
      vertex -30 -16.2749 -12.1915
      vertex -6 -18.966 -8.4875
    endloop
  endfacet
  facet normal -1.30515e-16 0.809017 0.587785
    outer loop
      vertex -6 -18.966 -8.4875
      vertex -30 -16.2749 -12.1915
      vertex -30 -18.966 -8.4875
    endloop
  endfacet
  facet normal -9.03137e-17 0.913545 0.406737
    outer loop
      vertex -6 -18.966 -8.4875
      vertex -30 -18.966 -8.4875
      vertex -6 -20.8281 -4.30497
    endloop
  endfacet
  facet normal -9.03137e-17 0.913545 0.406737
    outer loop
      vertex -6 -20.8281 -4.30497
      vertex -30 -18.966 -8.4875
      vertex -30 -20.8281 -4.30497
    endloop
  endfacet
  facet normal -4.61657e-17 0.978148 0.207912
    outer loop
      vertex -6 -20.8281 -4.30497
      vertex -30 -20.8281 -4.30497
      vertex -6 -21.78 0.173327
    endloop
  endfacet
  facet normal -4.61657e-17 0.978148 0.207912
    outer loop
      vertex -6 -21.78 0.173327
      vertex -30 -20.8281 -4.30497
      vertex -30 -21.78 0.173327
    endloop
  endfacet
  facet normal 0 1 0
    outer loop
      vertex -6 -21.78 2.4625
      vertex -6 -21.78 0.173327
      vertex -6 -21.78 4.75167
    endloop
  endfacet
  facet normal 0 1 0
    outer loop
      vertex -6 -21.78 4.75167
      vertex -6 -21.78 0.173327
      vertex -30 -21.78 0.173327
    endloop
  endfacet
  facet normal 0 1 0
    outer loop
      vertex -6 -21.78 4.75167
      vertex -30 -21.78 0.173327
      vertex -30 -21.78 4.75167
    endloop
  endfacet
  facet normal 4.61657e-17 0.978148 -0.207912
    outer loop
      vertex -6 -21.78 4.75167
      vertex -30 -21.78 4.75167
      vertex -6 -20.8281 9.22997
    endloop
  endfacet
  facet normal 4.61657e-17 0.978148 -0.207912
    outer loop
      vertex -6 -20.8281 9.22997
      vertex -30 -21.78 4.75167
      vertex -30 -20.8281 9.22997
    endloop
  endfacet
  facet normal 9.03137e-17 0.913545 -0.406737
    outer loop
      vertex -6 -20.8281 9.22997
      vertex -30 -20.8281 9.22997
      vertex -6 -18.966 13.4125
    endloop
  endfacet
  facet normal 9.03137e-17 0.913545 -0.406737
    outer loop
      vertex -6 -18.966 13.4125
      vertex -30 -20.8281 9.22997
      vertex -30 -18.966 13.4125
    endloop
  endfacet
  facet normal 1.30515e-16 0.809017 -0.587785
    outer loop
      vertex -6 -18.966 13.4125
      vertex -30 -18.966 13.4125
      vertex -6 -16.2749 17.1165
    endloop
  endfacet
  facet normal 1.30515e-16 0.809017 -0.587785
    outer loop
      vertex -6 -16.2749 17.1165
      vertex -30 -18.966 13.4125
      vertex -30 -16.2749 17.1165
    endloop
  endfacet
  facet normal 1.65011e-16 0.669131 -0.743145
    outer loop
      vertex -6 -16.2749 17.1165
      vertex -30 -16.2749 17.1165
      vertex -6 -12.8725 20.18
    endloop
  endfacet
  facet normal 1.65011e-16 0.669131 -0.743145
    outer loop
      vertex -6 -12.8725 20.18
      vertex -30 -16.2749 17.1165
      vertex -30 -12.8725 20.18
    endloop
  endfacet
  facet normal 1.92296e-16 0.5 -0.866025
    outer loop
      vertex -6 -12.8725 20.18
      vertex -30 -12.8725 20.18
      vertex -6 -8.90753 22.4691
    endloop
  endfacet
  facet normal 1.92296e-16 0.5 -0.866025
    outer loop
      vertex -6 -8.90753 22.4691
      vertex -30 -12.8725 20.18
      vertex -30 -8.90753 22.4691
    endloop
  endfacet
  facet normal 2.11177e-16 0.309017 -0.951057
    outer loop
      vertex -6 -8.90753 22.4691
      vertex -30 -8.90753 22.4691
      vertex -6 -4.55327 23.8839
    endloop
  endfacet
  facet normal 2.11177e-16 0.309017 -0.951057
    outer loop
      vertex -6 -4.55327 23.8839
      vertex -30 -8.90753 22.4691
      vertex -30 -4.55327 23.8839
    endloop
  endfacet
  facet normal 1 0 2.22045e-16
    outer loop
      vertex -6 4.96909 25.8402
      vertex -6 0 26.3625
      vertex -6 -4.96909 25.8402
    endloop
  endfacet
  facet normal 1 0 2.22045e-16
    outer loop
      vertex -6 -4.55327 23.8839
      vertex -6 4.96909 25.8402
      vertex -6 -9.72101 24.2962
    endloop
  endfacet
  facet normal 1 0 2.22045e-16
    outer loop
      vertex -6 -9.72101 24.2962
      vertex -6 4.96909 25.8402
      vertex -6 -4.96909 25.8402
    endloop
  endfacet
  facet normal 1 0 2.22045e-16
    outer loop
      vertex -6 -4.55327 23.8839
      vertex -6 0 24.3625
      vertex -6 4.96909 25.8402
    endloop
  endfacet
  facet normal 1 0 2.22045e-16
    outer loop
      vertex -6 -8.90753 22.4691
      vertex -6 -4.55327 23.8839
      vertex -6 -14.0481 21.798
    endloop
  endfacet
  facet normal 1 0 2.22045e-16
    outer loop
      vertex -6 -16.2749 17.1165
      vertex -6 -12.8725 20.18
      vertex -6 -17.7612 18.4547
    endloop
  endfacet
  facet normal 1 0 2.22045e-16
    outer loop
      vertex -6 -18.966 13.4125
      vertex -6 -16.2749 17.1165
      vertex -6 -20.698 14.4125
    endloop
  endfacet
  facet normal 1 0 2.22045e-16
    outer loop
      vertex -6 -20.8281 9.22997
      vertex -6 -18.966 13.4125
      vertex -6 -22.7303 9.84801
    endloop
  endfacet
  facet normal 1 0 2.22045e-16
    outer loop
      vertex -6 -21.78 4.75167
      vertex -6 -20.8281 9.22997
      vertex -6 -23.7691 4.96073
    endloop
  endfacet
  facet normal 1 0 2.22045e-16
    outer loop
      vertex -6 -23.7691 2.4625
      vertex -6 -21.78 4.75167
      vertex -6 -23.7691 4.96073
    endloop
  endfacet
  facet normal 1 0 2.22045e-16
    outer loop
      vertex -6 -23.7691 4.96073
      vertex -6 -20.8281 9.22997
      vertex -6 -22.7303 9.84801
    endloop
  endfacet
  facet normal 1 0 2.22045e-16
    outer loop
      vertex -6 -22.7303 9.84801
      vertex -6 -18.966 13.4125
      vertex -6 -20.698 14.4125
    endloop
  endfacet
  facet normal 1 0 2.22045e-16
    outer loop
      vertex -6 -20.698 14.4125
      vertex -6 -16.2749 17.1165
      vertex -6 -17.7612 18.4547
    endloop
  endfacet
  facet normal 1 0 2.22045e-16
    outer loop
      vertex -6 -17.7612 18.4547
      vertex -6 -12.8725 20.18
      vertex -6 -14.0481 21.798
    endloop
  endfacet
  facet normal 1 0 2.22045e-16
    outer loop
      vertex -6 -12.8725 20.18
      vertex -6 -8.90753 22.4691
      vertex -6 -14.0481 21.798
    endloop
  endfacet
  facet normal 1 0 2.22045e-16
    outer loop
      vertex -6 -14.0481 21.798
      vertex -6 -4.55327 23.8839
      vertex -6 -9.72101 24.2962
    endloop
  endfacet
  facet normal 1 0 2.22045e-16
    outer loop
      vertex -6 8.90753 22.4691
      vertex -6 4.96909 25.8402
      vertex -6 4.55327 23.8839
    endloop
  endfacet
  facet normal 1 0 2.22045e-16
    outer loop
      vertex -6 12.8725 20.18
      vertex -6 4.96909 25.8402
      vertex -6 8.90753 22.4691
    endloop
  endfacet
  facet normal 1 0 2.22045e-16
    outer loop
      vertex -6 17.7612 18.4547
      vertex -6 4.96909 25.8402
      vertex -6 12.8725 20.18
    endloop
  endfacet
  facet normal 1 0 2.22045e-16
    outer loop
      vertex -6 20.698 14.4125
      vertex -6 12.8725 20.18
      vertex -6 16.2749 17.1165
    endloop
  endfacet
  facet normal 1 0 2.22045e-16
    outer loop
      vertex -6 22.7303 9.84801
      vertex -6 16.2749 17.1165
      vertex -6 18.966 13.4125
    endloop
  endfacet
  facet normal 1 0 2.22045e-16
    outer loop
      vertex -6 23.7691 4.96073
      vertex -6 18.966 13.4125
      vertex -6 20.8281 9.22997
    endloop
  endfacet
  facet normal 1 0 2.22045e-16
    outer loop
      vertex -6 23.7691 2.4625
      vertex -6 20.8281 9.22997
      vertex -6 21.78 4.75167
    endloop
  endfacet
  facet normal 1 0 2.22045e-16
    outer loop
      vertex -6 23.7691 2.4625
      vertex -6 21.78 4.75167
      vertex -6 21.78 2.4625
    endloop
  endfacet
  facet normal 1 0 2.22045e-16
    outer loop
      vertex -6 23.7691 4.96073
      vertex -6 20.8281 9.22997
      vertex -6 23.7691 2.4625
    endloop
  endfacet
  facet normal 1 0 2.22045e-16
    outer loop
      vertex -6 22.7303 9.84801
      vertex -6 18.966 13.4125
      vertex -6 23.7691 4.96073
    endloop
  endfacet
  facet normal 1 0 2.22045e-16
    outer loop
      vertex -6 20.698 14.4125
      vertex -6 16.2749 17.1165
      vertex -6 22.7303 9.84801
    endloop
  endfacet
  facet normal 1 0 2.22045e-16
    outer loop
      vertex -6 17.7612 18.4547
      vertex -6 12.8725 20.18
      vertex -6 20.698 14.4125
    endloop
  endfacet
  facet normal 1 0 2.22045e-16
    outer loop
      vertex -6 14.0481 21.798
      vertex -6 4.96909 25.8402
      vertex -6 17.7612 18.4547
    endloop
  endfacet
  facet normal 1 0 2.22045e-16
    outer loop
      vertex -6 9.72101 24.2962
      vertex -6 4.96909 25.8402
      vertex -6 14.0481 21.798
    endloop
  endfacet
  facet normal 1 0 2.22045e-16
    outer loop
      vertex -6 -21.78 2.4625
      vertex -6 -21.78 4.75167
      vertex -6 -23.7691 2.4625
    endloop
  endfacet
  facet normal 1 0 2.22045e-16
    outer loop
      vertex -6 0 24.3625
      vertex -6 4.55327 23.8839
      vertex -6 4.96909 25.8402
    endloop
  endfacet
  facet normal -1 0 0
    outer loop
      vertex -6 -22.1322 30.5928
      vertex -6 -28.9 33.825
      vertex -6 28.9 33.825
    endloop
  endfacet
  facet normal -1 0 0
    outer loop
      vertex -6 -28.9 -33.825
      vertex -6 -28.9 33.825
      vertex -6 -26.4 -28.825
    endloop
  endfacet
  facet normal -1 0 0
    outer loop
      vertex -6 -25.6678 30.5928
      vertex -6 -28.9 33.825
      vertex -6 -23.9 31.325
    endloop
  endfacet
  facet normal -1 0 0
    outer loop
      vertex -6 -28.9 -33.825
      vertex -6 -26.4 -28.825
      vertex -6 -25.6678 -30.5928
    endloop
  endfacet
  facet normal -1 0 0
    outer loop
      vertex -6 -28.9 -33.825
      vertex -6 -25.6678 -30.5928
      vertex -6 -23.9 -31.325
    endloop
  endfacet
  facet normal -1 0 0
    outer loop
      vertex -6 -28.9 -33.825
      vertex -6 -23.9 -31.325
      vertex -6 28.9 -33.825
    endloop
  endfacet
  facet normal -1 0 0
    outer loop
      vertex -6 -21.4 -28.825
      vertex -6 28.9 -33.825
      vertex -6 -22.1322 -30.5928
    endloop
  endfacet
  facet normal -1 0 0
    outer loop
      vertex -6 -22.1322 -27.0572
      vertex -6 -28.9 33.825
      vertex -6 -21.4 -28.825
    endloop
  endfacet
  facet normal -1 0 0
    outer loop
      vertex -6 -26.4 28.825
      vertex -6 -28.9 33.825
      vertex -6 -25.6678 30.5928
    endloop
  endfacet
  facet normal -1 0 0
    outer loop
      vertex -6 -23.9 -26.325
      vertex -6 -28.9 33.825
      vertex -6 -22.1322 -27.0572
    endloop
  endfacet
  facet normal -1 0 0
    outer loop
      vertex -6 -25.6678 -27.0572
      vertex -6 -28.9 33.825
      vertex -6 -23.9 -26.325
    endloop
  endfacet
  facet normal -1 0 0
    outer loop
      vertex -6 -26.4 -28.825
      vertex -6 -28.9 33.825
      vertex -6 -25.6678 -27.0572
    endloop
  endfacet
  facet normal -1 0 0
    outer loop
      vertex -6 -21.4 -28.825
      vertex -6 -28.9 33.825
      vertex -6 -26.4 28.825
    endloop
  endfacet
  facet normal -1 0 0
    outer loop
      vertex -6 4.75 -2.575
      vertex -6 12.8725 -15.255
      vertex -6 8.90753 -17.5441
    endloop
  endfacet
  facet normal -1 0 0
    outer loop
      vertex -6 -23.7691 -0.03573
      vertex -6 -26.4 28.825
      vertex -6 -25.6678 27.0572
    endloop
  endfacet
  facet normal -1 0 0
    outer loop
      vertex -6 17.7612 -13.5297
      vertex -6 23.9 -26.325
      vertex -6 14.0481 -16.873
    endloop
  endfacet
  facet normal -1 0 0
    outer loop
      vertex -6 23.9 31.325
      vertex -6 -22.1322 27.0572
      vertex -6 28.9 33.825
    endloop
  endfacet
  facet normal -1 0 0
    outer loop
      vertex -6 -23.7691 -0.03573
      vertex -6 -25.6678 27.0572
      vertex -6 -23.7691 2.4625
    endloop
  endfacet
  facet normal -1 0 0
    outer loop
      vertex -6 -22.1322 27.0572
      vertex -6 -21.4 28.825
      vertex -6 28.9 33.825
    endloop
  endfacet
  facet normal -1 0 0
    outer loop
      vertex -6 -23.9 31.325
      vertex -6 -28.9 33.825
      vertex -6 -22.1322 30.5928
    endloop
  endfacet
  facet normal -1 0 0
    outer loop
      vertex -6 -21.4 28.825
      vertex -6 -22.1322 30.5928
      vertex -6 28.9 33.825
    endloop
  endfacet
  facet normal -1 0 0
    outer loop
      vertex -6 -18.966 -8.4875
      vertex -6 -4.55327 -18.9589
      vertex -6 -16.2749 -12.1915
    endloop
  endfacet
  facet normal -1 0 0
    outer loop
      vertex -6 23.9 26.325
      vertex -6 4.75 6.925
      vertex -6 22.1322 27.0572
    endloop
  endfacet
  facet normal -1 0 0
    outer loop
      vertex -6 -21.4 -28.825
      vertex -6 -26.4 28.825
      vertex -6 -23.7691 -0.03573
    endloop
  endfacet
  facet normal -1 0 0
    outer loop
      vertex -6 -22.7303 -4.92301
      vertex -6 -21.4 -28.825
      vertex -6 -23.7691 -0.03573
    endloop
  endfacet
  facet normal -1 0 0
    outer loop
      vertex -6 0 -21.4375
      vertex -6 28.9 -33.825
      vertex -6 -4.96909 -20.9152
    endloop
  endfacet
  facet normal -1 0 0
    outer loop
      vertex -6 4.75 -2.575
      vertex -6 8.90753 -17.5441
      vertex -6 -4.75 -2.575
    endloop
  endfacet
  facet normal -1 0 0
    outer loop
      vertex -6 -21.4 -28.825
      vertex -6 -22.7303 -4.92301
      vertex -6 -20.698 -9.4875
    endloop
  endfacet
  facet normal -1 0 0
    outer loop
      vertex -6 -21.4 -28.825
      vertex -6 -20.698 -9.4875
      vertex -6 -17.7612 -13.5297
    endloop
  endfacet
  facet normal -1 0 0
    outer loop
      vertex -6 -21.4 -28.825
      vertex -6 -17.7612 -13.5297
      vertex -6 -14.0481 -16.873
    endloop
  endfacet
  facet normal -1 0 0
    outer loop
      vertex -6 25.6678 -30.5928
      vertex -6 28.9 -33.825
      vertex -6 23.9 -31.325
    endloop
  endfacet
  facet normal -1 0 0
    outer loop
      vertex -6 -21.4 -28.825
      vertex -6 -14.0481 -16.873
      vertex -6 -9.72101 -19.3712
    endloop
  endfacet
  facet normal -1 0 0
    outer loop
      vertex -6 -21.4 -28.825
      vertex -6 -9.72101 -19.3712
      vertex -6 28.9 -33.825
    endloop
  endfacet
  facet normal -1 0 0
    outer loop
      vertex -6 -9.72101 -19.3712
      vertex -6 -4.96909 -20.9152
      vertex -6 28.9 -33.825
    endloop
  endfacet
  facet normal -1 0 0
    outer loop
      vertex -6 -12.8725 -15.255
      vertex -6 -4.55327 -18.9589
      vertex -6 -8.90753 -17.5441
    endloop
  endfacet
  facet normal -1 0 0
    outer loop
      vertex -6 23.9 -31.325
      vertex -6 28.9 -33.825
      vertex -6 22.1322 -30.5928
    endloop
  endfacet
  facet normal -1 0 0
    outer loop
      vertex -6 12.8725 -15.255
      vertex -6 4.75 -2.575
      vertex -6 16.2749 -12.1915
    endloop
  endfacet
  facet normal -1 0 0
    outer loop
      vertex -6 25.6678 -27.0572
      vertex -6 17.7612 -13.5297
      vertex -6 20.698 -9.4875
    endloop
  endfacet
  facet normal -1 0 0
    outer loop
      vertex -6 16.2749 -12.1915
      vertex -6 23.9 26.325
      vertex -6 25.6678 27.0572
    endloop
  endfacet
  facet normal -1 0 0
    outer loop
      vertex -6 28.9 -33.825
      vertex -6 20.698 -9.4875
      vertex -6 22.7303 -4.92301
    endloop
  endfacet
  facet normal -1 0 0
    outer loop
      vertex -6 28.9 -33.825
      vertex -6 22.7303 -4.92301
      vertex -6 23.7691 -0.03573
    endloop
  endfacet
  facet normal -1 0 0
    outer loop
      vertex -6 28.9 -33.825
      vertex -6 23.7691 -0.03573
      vertex -6 28.9 33.825
    endloop
  endfacet
  facet normal -1 0 0
    outer loop
      vertex -6 21.78 2.4625
      vertex -6 28.9 33.825
      vertex -6 23.7691 2.4625
    endloop
  endfacet
  facet normal -1 0 0
    outer loop
      vertex -6 16.2749 -12.1915
      vertex -6 4.75 6.925
      vertex -6 23.9 26.325
    endloop
  endfacet
  facet normal -1 0 0
    outer loop
      vertex -6 20.8281 -4.30497
      vertex -6 21.78 2.4625
      vertex -6 21.78 0.173327
    endloop
  endfacet
  facet normal -1 0 0
    outer loop
      vertex -6 18.966 -8.4875
      vertex -6 21.78 2.4625
      vertex -6 20.8281 -4.30497
    endloop
  endfacet
  facet normal -1 0 0
    outer loop
      vertex -6 -4.75 -2.575
      vertex -6 -23.9 26.325
      vertex -6 -22.1322 27.0572
    endloop
  endfacet
  facet normal -1 0 0
    outer loop
      vertex -6 21.78 2.4625
      vertex -6 18.966 -8.4875
      vertex -6 28.9 33.825
    endloop
  endfacet
  facet normal -1 0 0
    outer loop
      vertex -6 -4.75 -2.575
      vertex -6 -25.6678 27.0572
      vertex -6 -23.9 26.325
    endloop
  endfacet
  facet normal -1 0 0
    outer loop
      vertex -6 23.7691 2.4625
      vertex -6 28.9 33.825
      vertex -6 23.7691 -0.03573
    endloop
  endfacet
  facet normal -1 0 0
    outer loop
      vertex -6 4.55327 -18.9589
      vertex -6 -21.78 2.4625
      vertex -6 -4.75 -2.575
    endloop
  endfacet
  facet normal -1 0 0
    outer loop
      vertex -6 21.4 -28.825
      vertex -6 9.72101 -19.3712
      vertex -6 22.1322 -27.0572
    endloop
  endfacet
  facet normal -1 0 0
    outer loop
      vertex -6 14.0481 -16.873
      vertex -6 22.1322 -27.0572
      vertex -6 9.72101 -19.3712
    endloop
  endfacet
  facet normal -1 0 0
    outer loop
      vertex -6 -20.8281 -4.30497
      vertex -6 0 -19.4375
      vertex -6 -18.966 -8.4875
    endloop
  endfacet
  facet normal -1 0 0
    outer loop
      vertex -6 9.72101 -19.3712
      vertex -6 21.4 -28.825
      vertex -6 4.96909 -20.9152
    endloop
  endfacet
  facet normal -1 0 0
    outer loop
      vertex -6 -4.75 6.925
      vertex -6 -22.1322 27.0572
      vertex -6 4.75 6.925
    endloop
  endfacet
  facet normal -1 0 0
    outer loop
      vertex -6 -18.966 -8.4875
      vertex -6 0 -19.4375
      vertex -6 -4.55327 -18.9589
    endloop
  endfacet
  facet normal -1 0 0
    outer loop
      vertex -6 -12.8725 -15.255
      vertex -6 -16.2749 -12.1915
      vertex -6 -4.55327 -18.9589
    endloop
  endfacet
  facet normal -1 0 0
    outer loop
      vertex -6 -21.78 2.4625
      vertex -6 4.55327 -18.9589
      vertex -6 -21.78 0.173327
    endloop
  endfacet
  facet normal -1 0 0
    outer loop
      vertex -6 -20.8281 -4.30497
      vertex -6 -21.78 0.173327
      vertex -6 4.55327 -18.9589
    endloop
  endfacet
  facet normal -1 0 0
    outer loop
      vertex -6 -23.7691 2.4625
      vertex -6 -25.6678 27.0572
      vertex -6 -21.78 2.4625
    endloop
  endfacet
  facet normal -1 0 0
    outer loop
      vertex -6 -4.75 -2.575
      vertex -6 -22.1322 27.0572
      vertex -6 -4.75 6.925
    endloop
  endfacet
  facet normal -1 0 0
    outer loop
      vertex -6 -21.78 2.4625
      vertex -6 -25.6678 27.0572
      vertex -6 -4.75 -2.575
    endloop
  endfacet
  facet normal -1 0 0
    outer loop
      vertex -6 16.2749 -12.1915
      vertex -6 28.9 33.825
      vertex -6 18.966 -8.4875
    endloop
  endfacet
  facet normal -1 0 0
    outer loop
      vertex -6 25.6678 30.5928
      vertex -6 28.9 33.825
      vertex -6 26.4 28.825
    endloop
  endfacet
  facet normal -1 0 0
    outer loop
      vertex -6 26.4 -28.825
      vertex -6 28.9 -33.825
      vertex -6 25.6678 -30.5928
    endloop
  endfacet
  facet normal -1 0 0
    outer loop
      vertex -6 22.1322 -27.0572
      vertex -6 14.0481 -16.873
      vertex -6 23.9 -26.325
    endloop
  endfacet
  facet normal -1 0 0
    outer loop
      vertex -6 -20.8281 -4.30497
      vertex -6 4.55327 -18.9589
      vertex -6 0 -19.4375
    endloop
  endfacet
  facet normal -1 0 0
    outer loop
      vertex -6 22.1322 -30.5928
      vertex -6 4.96909 -20.9152
      vertex -6 21.4 -28.825
    endloop
  endfacet
  facet normal -1 0 0
    outer loop
      vertex -6 23.9 -26.325
      vertex -6 17.7612 -13.5297
      vertex -6 25.6678 -27.0572
    endloop
  endfacet
  facet normal -1 0 0
    outer loop
      vertex -6 28.9 -33.825
      vertex -6 26.4 -28.825
      vertex -6 20.698 -9.4875
    endloop
  endfacet
  facet normal -1 0 0
    outer loop
      vertex -6 26.4 -28.825
      vertex -6 25.6678 -27.0572
      vertex -6 20.698 -9.4875
    endloop
  endfacet
  facet normal -1 0 0
    outer loop
      vertex -6 16.2749 -12.1915
      vertex -6 25.6678 27.0572
      vertex -6 28.9 33.825
    endloop
  endfacet
  facet normal -1 0 0
    outer loop
      vertex -6 4.75 6.925
      vertex -6 16.2749 -12.1915
      vertex -6 4.75 -2.575
    endloop
  endfacet
  facet normal -1 0 0
    outer loop
      vertex -6 4.75 6.925
      vertex -6 -22.1322 27.0572
      vertex -6 21.4 28.825
    endloop
  endfacet
  facet normal -1 0 0
    outer loop
      vertex -6 4.75 6.925
      vertex -6 21.4 28.825
      vertex -6 22.1322 27.0572
    endloop
  endfacet
  facet normal -1 0 0
    outer loop
      vertex -6 4.55327 -18.9589
      vertex -6 -4.75 -2.575
      vertex -6 8.90753 -17.5441
    endloop
  endfacet
  facet normal -1 0 0
    outer loop
      vertex -6 25.6678 27.0572
      vertex -6 26.4 28.825
      vertex -6 28.9 33.825
    endloop
  endfacet
  facet normal -1 0 0
    outer loop
      vertex -6 23.9 31.325
      vertex -6 28.9 33.825
      vertex -6 25.6678 30.5928
    endloop
  endfacet
  facet normal -1 0 0
    outer loop
      vertex -6 22.1322 30.5928
      vertex -6 -22.1322 27.0572
      vertex -6 23.9 31.325
    endloop
  endfacet
  facet normal -1 0 0
    outer loop
      vertex -6 21.4 28.825
      vertex -6 -22.1322 27.0572
      vertex -6 22.1322 30.5928
    endloop
  endfacet
  facet normal -1 0 0
    outer loop
      vertex -6 -22.1322 -30.5928
      vertex -6 28.9 -33.825
      vertex -6 -23.9 -31.325
    endloop
  endfacet
  facet normal -1 0 0
    outer loop
      vertex -6 22.1322 -30.5928
      vertex -6 28.9 -33.825
      vertex -6 0 -21.4375
    endloop
  endfacet
  facet normal -1 0 0
    outer loop
      vertex -6 4.96909 -20.9152
      vertex -6 22.1322 -30.5928
      vertex -6 0 -21.4375
    endloop
  endfacet
  facet normal 0 0 -1
    outer loop
      vertex -6 -28.9 -33.825
      vertex -6 28.9 -33.825
      vertex 0 -28.9 -33.825
    endloop
  endfacet
  facet normal 0 0 -1
    outer loop
      vertex 0 -28.9 -33.825
      vertex -6 28.9 -33.825
      vertex 0 28.9 -33.825
    endloop
  endfacet
  facet normal 0 1 0
    outer loop
      vertex -6 28.9 -33.825
      vertex -6 28.9 33.825
      vertex 0 28.9 -33.825
    endloop
  endfacet
  facet normal 0 1 0
    outer loop
      vertex 0 28.9 -33.825
      vertex -6 28.9 33.825
      vertex 0 28.9 33.825
    endloop
  endfacet
  facet normal 0 0 1
    outer loop
      vertex -6 28.9 33.825
      vertex -6 -28.9 33.825
      vertex 0 -28.9 33.825
    endloop
  endfacet
  facet normal 0 0 1
    outer loop
      vertex 0 28.9 33.825
      vertex -6 28.9 33.825
      vertex 0 -28.9 33.825
    endloop
  endfacet
  facet normal 0 -1 0
    outer loop
      vertex -6 -28.9 33.825
      vertex -6 -28.9 -33.825
      vertex 0 -28.9 -33.825
    endloop
  endfacet
  facet normal 0 -1 0
    outer loop
      vertex 0 -28.9 33.825
      vertex -6 -28.9 33.825
      vertex 0 -28.9 -33.825
    endloop
  endfacet
  facet normal 8.49728e-17 0.92388 -0.382683
    outer loop
      vertex 0 -25.6678 -27.0572
      vertex 0 -26.4 -28.825
      vertex -6 -25.6678 -27.0572
    endloop
  endfacet
  facet normal 8.49728e-17 0.92388 -0.382683
    outer loop
      vertex -6 -25.6678 -27.0572
      vertex 0 -26.4 -28.825
      vertex -6 -26.4 -28.825
    endloop
  endfacet
  facet normal -8.49728e-17 0.92388 0.382683
    outer loop
      vertex 0 -25.6678 -30.5928
      vertex -6 -25.6678 -30.5928
      vertex 0 -26.4 -28.825
    endloop
  endfacet
  facet normal -8.49728e-17 0.92388 0.382683
    outer loop
      vertex 0 -26.4 -28.825
      vertex -6 -25.6678 -30.5928
      vertex -6 -26.4 -28.825
    endloop
  endfacet
  facet normal 2.05142e-16 0.382683 -0.92388
    outer loop
      vertex 0 -23.9 -26.325
      vertex 0 -25.6678 -27.0572
      vertex -6 -23.9 -26.325
    endloop
  endfacet
  facet normal 2.05142e-16 0.382683 -0.92388
    outer loop
      vertex -6 -23.9 -26.325
      vertex 0 -25.6678 -27.0572
      vertex -6 -25.6678 -27.0572
    endloop
  endfacet
  facet normal 2.05142e-16 -0.382683 -0.92388
    outer loop
      vertex 0 -22.1322 -27.0572
      vertex 0 -23.9 -26.325
      vertex -6 -22.1322 -27.0572
    endloop
  endfacet
  facet normal 2.05142e-16 -0.382683 -0.92388
    outer loop
      vertex -6 -22.1322 -27.0572
      vertex 0 -23.9 -26.325
      vertex -6 -23.9 -26.325
    endloop
  endfacet
  facet normal 8.49728e-17 -0.92388 -0.382683
    outer loop
      vertex -6 -21.4 -28.825
      vertex 0 -21.4 -28.825
      vertex 0 -22.1322 -27.0572
    endloop
  endfacet
  facet normal 8.49728e-17 -0.92388 -0.382683
    outer loop
      vertex -6 -22.1322 -27.0572
      vertex -6 -21.4 -28.825
      vertex 0 -22.1322 -27.0572
    endloop
  endfacet
  facet normal -8.49728e-17 -0.92388 0.382683
    outer loop
      vertex 0 -22.1322 -30.5928
      vertex 0 -21.4 -28.825
      vertex -6 -21.4 -28.825
    endloop
  endfacet
  facet normal -8.49728e-17 -0.92388 0.382683
    outer loop
      vertex -6 -22.1322 -30.5928
      vertex 0 -22.1322 -30.5928
      vertex -6 -21.4 -28.825
    endloop
  endfacet
  facet normal -2.05142e-16 -0.382683 0.92388
    outer loop
      vertex 0 -23.9 -31.325
      vertex 0 -22.1322 -30.5928
      vertex -6 -22.1322 -30.5928
    endloop
  endfacet
  facet normal -2.05142e-16 -0.382683 0.92388
    outer loop
      vertex -6 -23.9 -31.325
      vertex 0 -23.9 -31.325
      vertex -6 -22.1322 -30.5928
    endloop
  endfacet
  facet normal -2.05142e-16 0.382683 0.92388
    outer loop
      vertex 0 -25.6678 -30.5928
      vertex 0 -23.9 -31.325
      vertex -6 -23.9 -31.325
    endloop
  endfacet
  facet normal -2.05142e-16 0.382683 0.92388
    outer loop
      vertex -6 -25.6678 -30.5928
      vertex 0 -25.6678 -30.5928
      vertex -6 -23.9 -31.325
    endloop
  endfacet
  facet normal 8.49728e-17 0.92388 -0.382683
    outer loop
      vertex 0 -25.6678 30.5928
      vertex 0 -26.4 28.825
      vertex -6 -25.6678 30.5928
    endloop
  endfacet
  facet normal 8.49728e-17 0.92388 -0.382683
    outer loop
      vertex -6 -25.6678 30.5928
      vertex 0 -26.4 28.825
      vertex -6 -26.4 28.825
    endloop
  endfacet
  facet normal -8.49728e-17 0.92388 0.382683
    outer loop
      vertex 0 -25.6678 27.0572
      vertex -6 -25.6678 27.0572
      vertex 0 -26.4 28.825
    endloop
  endfacet
  facet normal -8.49728e-17 0.92388 0.382683
    outer loop
      vertex 0 -26.4 28.825
      vertex -6 -25.6678 27.0572
      vertex -6 -26.4 28.825
    endloop
  endfacet
  facet normal 2.05142e-16 0.382683 -0.92388
    outer loop
      vertex 0 -23.9 31.325
      vertex 0 -25.6678 30.5928
      vertex -6 -23.9 31.325
    endloop
  endfacet
  facet normal 2.05142e-16 0.382683 -0.92388
    outer loop
      vertex -6 -23.9 31.325
      vertex 0 -25.6678 30.5928
      vertex -6 -25.6678 30.5928
    endloop
  endfacet
  facet normal 2.05142e-16 -0.382683 -0.92388
    outer loop
      vertex 0 -22.1322 30.5928
      vertex 0 -23.9 31.325
      vertex -6 -22.1322 30.5928
    endloop
  endfacet
  facet normal 2.05142e-16 -0.382683 -0.92388
    outer loop
      vertex -6 -22.1322 30.5928
      vertex 0 -23.9 31.325
      vertex -6 -23.9 31.325
    endloop
  endfacet
  facet normal 8.49728e-17 -0.92388 -0.382683
    outer loop
      vertex -6 -21.4 28.825
      vertex 0 -21.4 28.825
      vertex 0 -22.1322 30.5928
    endloop
  endfacet
  facet normal 8.49728e-17 -0.92388 -0.382683
    outer loop
      vertex -6 -22.1322 30.5928
      vertex -6 -21.4 28.825
      vertex 0 -22.1322 30.5928
    endloop
  endfacet
  facet normal -8.49728e-17 -0.92388 0.382683
    outer loop
      vertex 0 -22.1322 27.0572
      vertex 0 -21.4 28.825
      vertex -6 -21.4 28.825
    endloop
  endfacet
  facet normal -8.49728e-17 -0.92388 0.382683
    outer loop
      vertex -6 -22.1322 27.0572
      vertex 0 -22.1322 27.0572
      vertex -6 -21.4 28.825
    endloop
  endfacet
  facet normal -2.05142e-16 -0.382683 0.92388
    outer loop
      vertex 0 -23.9 26.325
      vertex 0 -22.1322 27.0572
      vertex -6 -22.1322 27.0572
    endloop
  endfacet
  facet normal -2.05142e-16 -0.382683 0.92388
    outer loop
      vertex -6 -23.9 26.325
      vertex 0 -23.9 26.325
      vertex -6 -22.1322 27.0572
    endloop
  endfacet
  facet normal -2.05142e-16 0.382683 0.92388
    outer loop
      vertex 0 -25.6678 27.0572
      vertex 0 -23.9 26.325
      vertex -6 -23.9 26.325
    endloop
  endfacet
  facet normal -2.05142e-16 0.382683 0.92388
    outer loop
      vertex -6 -25.6678 27.0572
      vertex 0 -25.6678 27.0572
      vertex -6 -23.9 26.325
    endloop
  endfacet
  facet normal 0 1 0
    outer loop
      vertex -3.5 -4.75 6.925
      vertex -3.5 -4.75 4.425
      vertex -6 -4.75 6.925
    endloop
  endfacet
  facet normal 0 1 0
    outer loop
      vertex -1.5 -4.75 -2.575
      vertex -3.5 -4.75 4.425
      vertex -1.5 -4.75 4.425
    endloop
  endfacet
  facet normal 0 1 0
    outer loop
      vertex -6 -4.75 6.925
      vertex -3.5 -4.75 4.425
      vertex -1.5 -4.75 -2.575
    endloop
  endfacet
  facet normal 0 1 0
    outer loop
      vertex -6 -4.75 6.925
      vertex -1.5 -4.75 -2.575
      vertex -6 -4.75 -2.575
    endloop
  endfacet
  facet normal 0 0 -1
    outer loop
      vertex -3.5 4.75 6.925
      vertex -3.5 -4.75 6.925
      vertex -6 4.75 6.925
    endloop
  endfacet
  facet normal 0 0 -1
    outer loop
      vertex -6 4.75 6.925
      vertex -3.5 -4.75 6.925
      vertex -6 -4.75 6.925
    endloop
  endfacet
  facet normal 0 -1 0
    outer loop
      vertex -1.5 4.75 -2.575
      vertex -1.5 4.75 4.425
      vertex -3.5 4.75 4.425
    endloop
  endfacet
  facet normal 0 -1 0
    outer loop
      vertex -6 4.75 6.925
      vertex -1.5 4.75 -2.575
      vertex -3.5 4.75 4.425
    endloop
  endfacet
  facet normal 0 -1 0
    outer loop
      vertex -3.5 4.75 6.925
      vertex -6 4.75 6.925
      vertex -3.5 4.75 4.425
    endloop
  endfacet
  facet normal 0 -1 0
    outer loop
      vertex -6 4.75 6.925
      vertex -6 4.75 -2.575
      vertex -1.5 4.75 -2.575
    endloop
  endfacet
  facet normal 0 0 1
    outer loop
      vertex -1.5 -4.75 -2.575
      vertex -1.5 4.75 -2.575
      vertex -6 4.75 -2.575
    endloop
  endfacet
  facet normal 0 0 1
    outer loop
      vertex -6 -4.75 -2.575
      vertex -1.5 -4.75 -2.575
      vertex -6 4.75 -2.575
    endloop
  endfacet
  facet normal 8.49728e-17 0.92388 -0.382683
    outer loop
      vertex 0 22.1322 -27.0572
      vertex 0 21.4 -28.825
      vertex -6 22.1322 -27.0572
    endloop
  endfacet
  facet normal 8.49728e-17 0.92388 -0.382683
    outer loop
      vertex -6 22.1322 -27.0572
      vertex 0 21.4 -28.825
      vertex -6 21.4 -28.825
    endloop
  endfacet
  facet normal -8.49728e-17 0.92388 0.382683
    outer loop
      vertex 0 22.1322 -30.5928
      vertex -6 22.1322 -30.5928
      vertex 0 21.4 -28.825
    endloop
  endfacet
  facet normal -8.49728e-17 0.92388 0.382683
    outer loop
      vertex 0 21.4 -28.825
      vertex -6 22.1322 -30.5928
      vertex -6 21.4 -28.825
    endloop
  endfacet
  facet normal 2.05142e-16 0.382683 -0.92388
    outer loop
      vertex 0 23.9 -26.325
      vertex 0 22.1322 -27.0572
      vertex -6 23.9 -26.325
    endloop
  endfacet
  facet normal 2.05142e-16 0.382683 -0.92388
    outer loop
      vertex -6 23.9 -26.325
      vertex 0 22.1322 -27.0572
      vertex -6 22.1322 -27.0572
    endloop
  endfacet
  facet normal 2.05142e-16 -0.382683 -0.92388
    outer loop
      vertex 0 25.6678 -27.0572
      vertex 0 23.9 -26.325
      vertex -6 25.6678 -27.0572
    endloop
  endfacet
  facet normal 2.05142e-16 -0.382683 -0.92388
    outer loop
      vertex -6 25.6678 -27.0572
      vertex 0 23.9 -26.325
      vertex -6 23.9 -26.325
    endloop
  endfacet
  facet normal 8.49728e-17 -0.92388 -0.382683
    outer loop
      vertex -6 26.4 -28.825
      vertex 0 26.4 -28.825
      vertex 0 25.6678 -27.0572
    endloop
  endfacet
  facet normal 8.49728e-17 -0.92388 -0.382683
    outer loop
      vertex -6 25.6678 -27.0572
      vertex -6 26.4 -28.825
      vertex 0 25.6678 -27.0572
    endloop
  endfacet
  facet normal -8.49728e-17 -0.92388 0.382683
    outer loop
      vertex 0 25.6678 -30.5928
      vertex 0 26.4 -28.825
      vertex -6 26.4 -28.825
    endloop
  endfacet
  facet normal -8.49728e-17 -0.92388 0.382683
    outer loop
      vertex -6 25.6678 -30.5928
      vertex 0 25.6678 -30.5928
      vertex -6 26.4 -28.825
    endloop
  endfacet
  facet normal -2.05142e-16 -0.382683 0.92388
    outer loop
      vertex 0 23.9 -31.325
      vertex 0 25.6678 -30.5928
      vertex -6 25.6678 -30.5928
    endloop
  endfacet
  facet normal -2.05142e-16 -0.382683 0.92388
    outer loop
      vertex -6 23.9 -31.325
      vertex 0 23.9 -31.325
      vertex -6 25.6678 -30.5928
    endloop
  endfacet
  facet normal -2.05142e-16 0.382683 0.92388
    outer loop
      vertex 0 22.1322 -30.5928
      vertex 0 23.9 -31.325
      vertex -6 23.9 -31.325
    endloop
  endfacet
  facet normal -2.05142e-16 0.382683 0.92388
    outer loop
      vertex -6 22.1322 -30.5928
      vertex 0 22.1322 -30.5928
      vertex -6 23.9 -31.325
    endloop
  endfacet
  facet normal -8.49728e-17 0.92388 0.382683
    outer loop
      vertex 0 22.1322 27.0572
      vertex -6 22.1322 27.0572
      vertex 0 21.4 28.825
    endloop
  endfacet
  facet normal -8.49728e-17 0.92388 0.382683
    outer loop
      vertex 0 21.4 28.825
      vertex -6 22.1322 27.0572
      vertex -6 21.4 28.825
    endloop
  endfacet
  facet normal 8.49728e-17 0.92388 -0.382683
    outer loop
      vertex 0 22.1322 30.5928
      vertex 0 21.4 28.825
      vertex -6 22.1322 30.5928
    endloop
  endfacet
  facet normal 8.49728e-17 0.92388 -0.382683
    outer loop
      vertex -6 22.1322 30.5928
      vertex 0 21.4 28.825
      vertex -6 21.4 28.825
    endloop
  endfacet
  facet normal 2.05142e-16 0.382683 -0.92388
    outer loop
      vertex 0 23.9 31.325
      vertex 0 22.1322 30.5928
      vertex -6 23.9 31.325
    endloop
  endfacet
  facet normal 2.05142e-16 0.382683 -0.92388
    outer loop
      vertex -6 23.9 31.325
      vertex 0 22.1322 30.5928
      vertex -6 22.1322 30.5928
    endloop
  endfacet
  facet normal 2.05142e-16 -0.382683 -0.92388
    outer loop
      vertex 0 25.6678 30.5928
      vertex 0 23.9 31.325
      vertex -6 25.6678 30.5928
    endloop
  endfacet
  facet normal 2.05142e-16 -0.382683 -0.92388
    outer loop
      vertex -6 25.6678 30.5928
      vertex 0 23.9 31.325
      vertex -6 23.9 31.325
    endloop
  endfacet
  facet normal 8.49728e-17 -0.92388 -0.382683
    outer loop
      vertex -6 26.4 28.825
      vertex 0 26.4 28.825
      vertex 0 25.6678 30.5928
    endloop
  endfacet
  facet normal 8.49728e-17 -0.92388 -0.382683
    outer loop
      vertex -6 25.6678 30.5928
      vertex -6 26.4 28.825
      vertex 0 25.6678 30.5928
    endloop
  endfacet
  facet normal -8.49728e-17 -0.92388 0.382683
    outer loop
      vertex 0 25.6678 27.0572
      vertex 0 26.4 28.825
      vertex -6 26.4 28.825
    endloop
  endfacet
  facet normal -8.49728e-17 -0.92388 0.382683
    outer loop
      vertex -6 25.6678 27.0572
      vertex 0 25.6678 27.0572
      vertex -6 26.4 28.825
    endloop
  endfacet
  facet normal -2.05142e-16 -0.382683 0.92388
    outer loop
      vertex 0 23.9 26.325
      vertex 0 25.6678 27.0572
      vertex -6 25.6678 27.0572
    endloop
  endfacet
  facet normal -2.05142e-16 -0.382683 0.92388
    outer loop
      vertex -6 23.9 26.325
      vertex 0 23.9 26.325
      vertex -6 25.6678 27.0572
    endloop
  endfacet
  facet normal -2.05142e-16 0.382683 0.92388
    outer loop
      vertex 0 22.1322 27.0572
      vertex 0 23.9 26.325
      vertex -6 23.9 26.325
    endloop
  endfacet
  facet normal -2.05142e-16 0.382683 0.92388
    outer loop
      vertex -6 22.1322 27.0572
      vertex 0 22.1322 27.0572
      vertex -6 23.9 26.325
    endloop
  endfacet
  facet normal 1 0 0
    outer loop
      vertex 0 -23.9 -31.325
      vertex 0 -28.9 -33.825
      vertex 0 28.9 -33.825
    endloop
  endfacet
  facet normal 1 0 0
    outer loop
      vertex 0 -26.4 -28.825
      vertex 0 -28.9 -33.825
      vertex 0 -25.6678 -30.5928
    endloop
  endfacet
  facet normal 1 0 0
    outer loop
      vertex 0 -22.1322 -27.0572
      vertex 0 -21.4 -28.825
      vertex 0 28.9 -33.825
    endloop
  endfacet
  facet normal 1 0 0
    outer loop
      vertex 0 -28.9 33.825
      vertex 0 -28.9 -33.825
      vertex 0 -26.4 -28.825
    endloop
  endfacet
  facet normal 1 0 0
    outer loop
      vertex 0 -22.1322 -30.5928
      vertex 0 -23.9 -31.325
      vertex 0 28.9 -33.825
    endloop
  endfacet
  facet normal 1 0 0
    outer loop
      vertex 0 22.1322 -30.5928
      vertex 0 -23.9 -26.325
      vertex 0 28.9 -33.825
    endloop
  endfacet
  facet normal 1 0 0
    outer loop
      vertex 0 -28.9 33.825
      vertex 0 -25.6678 -27.0572
      vertex 0 -23.9 -26.325
    endloop
  endfacet
  facet normal 1 0 0
    outer loop
      vertex 0 -23.9 -26.325
      vertex 0 -22.1322 -27.0572
      vertex 0 28.9 -33.825
    endloop
  endfacet
  facet normal 1 0 0
    outer loop
      vertex 0 -21.4 -28.825
      vertex 0 -22.1322 -30.5928
      vertex 0 28.9 -33.825
    endloop
  endfacet
  facet normal 1 0 0
    outer loop
      vertex 0 -25.6678 -30.5928
      vertex 0 -28.9 -33.825
      vertex 0 -23.9 -31.325
    endloop
  endfacet
  facet normal 1 0 0
    outer loop
      vertex 0 -13.25 -7.775
      vertex 0 -23.9 26.325
      vertex 0 -25.6678 27.0572
    endloop
  endfacet
  facet normal 1 0 0
    outer loop
      vertex 0 -28.9 33.825
      vertex 0 -23.9 -26.325
      vertex 0 -25.6678 27.0572
    endloop
  endfacet
  facet normal 1 0 0
    outer loop
      vertex 0 -28.9 33.825
      vertex 0 -25.6678 27.0572
      vertex 0 -26.4 28.825
    endloop
  endfacet
  facet normal 1 0 0
    outer loop
      vertex 0 -13.25 -7.775
      vertex 0 -22.1322 27.0572
      vertex 0 -23.9 26.325
    endloop
  endfacet
  facet normal 1 0 0
    outer loop
      vertex 0 -23.9 31.325
      vertex 0 -28.9 33.825
      vertex 0 -25.6678 30.5928
    endloop
  endfacet
  facet normal 1 0 0
    outer loop
      vertex 0 28.9 33.825
      vertex 0 -28.9 33.825
      vertex 0 -23.9 31.325
    endloop
  endfacet
  facet normal 1 0 0
    outer loop
      vertex 0 -23.9 31.325
      vertex 0 -22.1322 30.5928
      vertex 0 28.9 33.825
    endloop
  endfacet
  facet normal 1 0 0
    outer loop
      vertex 0 -13.25 -7.775
      vertex 0 -13.25 17.625
      vertex 0 -22.1322 27.0572
    endloop
  endfacet
  facet normal 1 0 0
    outer loop
      vertex 0 -25.6678 27.0572
      vertex 0 -23.9 -26.325
      vertex 0 -13.25 -7.775
    endloop
  endfacet
  facet normal 1 0 0
    outer loop
      vertex 0 -21.4 28.825
      vertex 0 -22.1322 27.0572
      vertex 0 -13.25 17.625
    endloop
  endfacet
  facet normal 1 0 0
    outer loop
      vertex 0 25.6678 27.0572
      vertex 0 13.25 17.625
      vertex 0 28.9 -33.825
    endloop
  endfacet
  facet normal 1 0 0
    outer loop
      vertex 0 22.1322 27.0572
      vertex 0 -22.1322 30.5928
      vertex 0 13.25 17.625
    endloop
  endfacet
  facet normal 1 0 0
    outer loop
      vertex 0 26.4 -28.825
      vertex 0 25.6678 -30.5928
      vertex 0 28.9 -33.825
    endloop
  endfacet
  facet normal 1 0 0
    outer loop
      vertex 0 23.9 -31.325
      vertex 0 22.1322 -30.5928
      vertex 0 28.9 -33.825
    endloop
  endfacet
  facet normal 1 0 0
    outer loop
      vertex 0 -13.25 -7.775
      vertex 0 -23.9 -26.325
      vertex 0 22.1322 -30.5928
    endloop
  endfacet
  facet normal 1 0 0
    outer loop
      vertex 0 23.9 26.325
      vertex 0 22.1322 27.0572
      vertex 0 13.25 17.625
    endloop
  endfacet
  facet normal 1 0 0
    outer loop
      vertex 0 -13.25 17.625
      vertex 0 13.25 17.625
      vertex 0 -22.1322 30.5928
    endloop
  endfacet
  facet normal 1 0 0
    outer loop
      vertex 0 25.6678 -30.5928
      vertex 0 23.9 -31.325
      vertex 0 28.9 -33.825
    endloop
  endfacet
  facet normal 1 0 0
    outer loop
      vertex 0 13.25 17.625
      vertex 0 25.6678 -27.0572
      vertex 0 28.9 -33.825
    endloop
  endfacet
  facet normal 1 0 0
    outer loop
      vertex 0 13.25 17.625
      vertex 0 13.25 -7.775
      vertex 0 25.6678 -27.0572
    endloop
  endfacet
  facet normal 1 0 0
    outer loop
      vertex 0 25.6678 -27.0572
      vertex 0 26.4 -28.825
      vertex 0 28.9 -33.825
    endloop
  endfacet
  facet normal 1 0 0
    outer loop
      vertex 0 22.1322 -30.5928
      vertex 0 21.4 -28.825
      vertex 0 -13.25 -7.775
    endloop
  endfacet
  facet normal 1 0 0
    outer loop
      vertex 0 22.1322 -27.0572
      vertex 0 23.9 -26.325
      vertex 0 13.25 -7.775
    endloop
  endfacet
  facet normal 1 0 0
    outer loop
      vertex 0 23.9 -26.325
      vertex 0 25.6678 -27.0572
      vertex 0 13.25 -7.775
    endloop
  endfacet
  facet normal 1 0 0
    outer loop
      vertex 0 21.4 28.825
      vertex 0 -22.1322 30.5928
      vertex 0 22.1322 27.0572
    endloop
  endfacet
  facet normal 1 0 0
    outer loop
      vertex 0 22.1322 30.5928
      vertex 0 -22.1322 30.5928
      vertex 0 21.4 28.825
    endloop
  endfacet
  facet normal 1 0 0
    outer loop
      vertex 0 28.9 33.825
      vertex 0 -22.1322 30.5928
      vertex 0 22.1322 30.5928
    endloop
  endfacet
  facet normal 1 0 0
    outer loop
      vertex 0 25.6678 30.5928
      vertex 0 26.4 28.825
      vertex 0 28.9 33.825
    endloop
  endfacet
  facet normal 1 0 0
    outer loop
      vertex 0 28.9 33.825
      vertex 0 22.1322 30.5928
      vertex 0 23.9 31.325
    endloop
  endfacet
  facet normal 1 0 0
    outer loop
      vertex 0 28.9 33.825
      vertex 0 26.4 28.825
      vertex 0 28.9 -33.825
    endloop
  endfacet
  facet normal 1 0 0
    outer loop
      vertex 0 23.9 31.325
      vertex 0 25.6678 30.5928
      vertex 0 28.9 33.825
    endloop
  endfacet
  facet normal 1 0 0
    outer loop
      vertex 0 26.4 28.825
      vertex 0 25.6678 27.0572
      vertex 0 28.9 -33.825
    endloop
  endfacet
  facet normal 1 0 0
    outer loop
      vertex 0 23.9 26.325
      vertex 0 13.25 17.625
      vertex 0 25.6678 27.0572
    endloop
  endfacet
  facet normal 1 0 0
    outer loop
      vertex 0 -26.4 -28.825
      vertex 0 -25.6678 -27.0572
      vertex 0 -28.9 33.825
    endloop
  endfacet
  facet normal 1 0 0
    outer loop
      vertex 0 -26.4 28.825
      vertex 0 -25.6678 30.5928
      vertex 0 -28.9 33.825
    endloop
  endfacet
  facet normal 1 0 0
    outer loop
      vertex 0 -13.25 17.625
      vertex 0 -22.1322 30.5928
      vertex 0 -21.4 28.825
    endloop
  endfacet
  facet normal 1 0 0
    outer loop
      vertex 0 13.25 -7.775
      vertex 0 21.4 -28.825
      vertex 0 22.1322 -27.0572
    endloop
  endfacet
  facet normal 1 0 0
    outer loop
      vertex 0 13.25 -7.775
      vertex 0 -13.25 -7.775
      vertex 0 21.4 -28.825
    endloop
  endfacet
  facet normal 1 0 0
    outer loop
      vertex -1.5 13.25 -7.775
      vertex -1.5 13.25 17.625
      vertex -1.5 6.33333 17.625
    endloop
  endfacet
  facet normal 1 0 0
    outer loop
      vertex -1.5 4.75 4.425
      vertex -1.5 13.25 -7.775
      vertex -1.5 6.33333 4.425
    endloop
  endfacet
  facet normal 1 0 0
    outer loop
      vertex -1.5 6.33333 4.425
      vertex -1.5 13.25 -7.775
      vertex -1.5 6.33333 17.625
    endloop
  endfacet
  facet normal 1 0 0
    outer loop
      vertex -1.5 4.75 -2.575
      vertex -1.5 13.25 -7.775
      vertex -1.5 4.75 4.425
    endloop
  endfacet
  facet normal 1 0 0
    outer loop
      vertex -1.5 -4.75 -2.575
      vertex -1.5 13.25 -7.775
      vertex -1.5 4.75 -2.575
    endloop
  endfacet
  facet normal 1 0 0
    outer loop
      vertex -1.5 -13.25 -7.775
      vertex -1.5 13.25 -7.775
      vertex -1.5 -4.75 -2.575
    endloop
  endfacet
  facet normal 1 0 0
    outer loop
      vertex -1.5 -6.33333 4.425
      vertex -1.5 -4.75 -2.575
      vertex -1.5 -4.75 4.425
    endloop
  endfacet
  facet normal 1 0 0
    outer loop
      vertex -1.5 -13.25 17.625
      vertex -1.5 -4.75 -2.575
      vertex -1.5 -6.33333 4.425
    endloop
  endfacet
  facet normal 1 0 0
    outer loop
      vertex -1.5 -13.25 17.625
      vertex -1.5 -6.33333 4.425
      vertex -1.5 -6.33333 17.625
    endloop
  endfacet
  facet normal 1 0 0
    outer loop
      vertex -1.5 -13.25 -7.775
      vertex -1.5 -4.75 -2.575
      vertex -1.5 -13.25 17.625
    endloop
  endfacet
  facet normal 0 0 1
    outer loop
      vertex -1.5 -6.33333 4.425
      vertex -1.5 -4.75 4.425
      vertex -3.5 -4.75 4.425
    endloop
  endfacet
  facet normal 0 0 1
    outer loop
      vertex -3.5 -6.33333 4.425
      vertex -1.5 -6.33333 4.425
      vertex -3.5 -4.75 4.425
    endloop
  endfacet
  facet normal 1 0 0
    outer loop
      vertex -3.5 6.33333 18.125
      vertex -3.5 -4.75 6.925
      vertex -3.5 4.75 6.925
    endloop
  endfacet
  facet normal 1 0 0
    outer loop
      vertex -3.5 -4.75 4.425
      vertex -3.5 -4.75 6.925
      vertex -3.5 -6.33333 18.125
    endloop
  endfacet
  facet normal 1 0 0
    outer loop
      vertex -3.5 4.75 4.425
      vertex -3.5 6.33333 4.425
      vertex -3.5 4.75 6.925
    endloop
  endfacet
  facet normal 1 0 0
    outer loop
      vertex -3.5 6.33333 4.425
      vertex -3.5 6.33333 18.125
      vertex -3.5 4.75 6.925
    endloop
  endfacet
  facet normal 1 0 0
    outer loop
      vertex -3.5 6.33333 18.125
      vertex -3.5 -6.33333 18.125
      vertex -3.5 -4.75 6.925
    endloop
  endfacet
  facet normal 1 0 0
    outer loop
      vertex -3.5 -6.33333 18.125
      vertex -3.5 -6.33333 4.425
      vertex -3.5 -4.75 4.425
    endloop
  endfacet
  facet normal 0 0 1
    outer loop
      vertex -1.5 4.75 4.425
      vertex -1.5 6.33333 4.425
      vertex -3.5 6.33333 4.425
    endloop
  endfacet
  facet normal 0 0 1
    outer loop
      vertex -3.5 4.75 4.425
      vertex -1.5 4.75 4.425
      vertex -3.5 6.33333 4.425
    endloop
  endfacet
  facet normal 0 1 0
    outer loop
      vertex 0 -13.25 17.625
      vertex 0 -13.25 -7.775
      vertex -1.5 -13.25 17.625
    endloop
  endfacet
  facet normal 0 1 0
    outer loop
      vertex -1.5 -13.25 17.625
      vertex 0 -13.25 -7.775
      vertex -1.5 -13.25 -7.775
    endloop
  endfacet
  facet normal 0 0 1
    outer loop
      vertex 0 -13.25 -7.775
      vertex 0 13.25 -7.775
      vertex -1.5 13.25 -7.775
    endloop
  endfacet
  facet normal 0 0 1
    outer loop
      vertex -1.5 -13.25 -7.775
      vertex 0 -13.25 -7.775
      vertex -1.5 13.25 -7.775
    endloop
  endfacet
  facet normal 0 -1 0
    outer loop
      vertex 0 13.25 -7.775
      vertex 0 13.25 17.625
      vertex -1.5 13.25 17.625
    endloop
  endfacet
  facet normal 0 -1 0
    outer loop
      vertex -1.5 13.25 -7.775
      vertex 0 13.25 -7.775
      vertex -1.5 13.25 17.625
    endloop
  endfacet
  facet normal 0 0 -1
    outer loop
      vertex -1.5 13.25 17.625
      vertex -0.5 6.33333 17.625
      vertex -1.5 6.33333 17.625
    endloop
  endfacet
  facet normal 0 0 -1
    outer loop
      vertex 0 13.25 17.625
      vertex -0.5 6.33333 17.625
      vertex -1.5 13.25 17.625
    endloop
  endfacet
  facet normal 0 0 -1
    outer loop
      vertex -0.5 -6.33333 17.625
      vertex -0.5 6.33333 17.625
      vertex 0 13.25 17.625
    endloop
  endfacet
  facet normal 0 0 -1
    outer loop
      vertex -0.5 -6.33333 17.625
      vertex 0 13.25 17.625
      vertex 0 -13.25 17.625
    endloop
  endfacet
  facet normal 0 0 -1
    outer loop
      vertex -0.5 -6.33333 17.625
      vertex 0 -13.25 17.625
      vertex -1.5 -6.33333 17.625
    endloop
  endfacet
  facet normal 0 0 -1
    outer loop
      vertex 0 -13.25 17.625
      vertex -1.5 -13.25 17.625
      vertex -1.5 -6.33333 17.625
    endloop
  endfacet
  facet normal 0 1 0
    outer loop
      vertex -0.5 -6.33333 18.125
      vertex -0.5 -6.33333 17.625
      vertex -3.5 -6.33333 18.125
    endloop
  endfacet
  facet normal 0 1 0
    outer loop
      vertex -3.5 -6.33333 18.125
      vertex -0.5 -6.33333 17.625
      vertex -1.5 -6.33333 17.625
    endloop
  endfacet
  facet normal 0 1 0
    outer loop
      vertex -3.5 -6.33333 18.125
      vertex -1.5 -6.33333 17.625
      vertex -1.5 -6.33333 4.425
    endloop
  endfacet
  facet normal 0 1 0
    outer loop
      vertex -3.5 -6.33333 18.125
      vertex -1.5 -6.33333 4.425
      vertex -3.5 -6.33333 4.425
    endloop
  endfacet
  facet normal 0 -1 0
    outer loop
      vertex -0.5 6.33333 18.125
      vertex -1.5 6.33333 17.625
      vertex -0.5 6.33333 17.625
    endloop
  endfacet
  facet normal 0 -1 0
    outer loop
      vertex -3.5 6.33333 18.125
      vertex -1.5 6.33333 17.625
      vertex -0.5 6.33333 18.125
    endloop
  endfacet
  facet normal 0 -1 0
    outer loop
      vertex -1.5 6.33333 4.425
      vertex -1.5 6.33333 17.625
      vertex -3.5 6.33333 18.125
    endloop
  endfacet
  facet normal 0 -1 0
    outer loop
      vertex -3.5 6.33333 4.425
      vertex -1.5 6.33333 4.425
      vertex -3.5 6.33333 18.125
    endloop
  endfacet
  facet normal 0 0 -1
    outer loop
      vertex -0.5 6.33333 18.125
      vertex -0.5 -6.33333 18.125
      vertex -3.5 6.33333 18.125
    endloop
  endfacet
  facet normal 0 0 -1
    outer loop
      vertex -3.5 6.33333 18.125
      vertex -0.5 -6.33333 18.125
      vertex -3.5 -6.33333 18.125
    endloop
  endfacet
  facet normal -1 0 0
    outer loop
      vertex -0.5 6.33333 18.125
      vertex -0.5 6.33333 17.625
      vertex -0.5 -6.33333 18.125
    endloop
  endfacet
  facet normal -1 0 0
    outer loop
      vertex -0.5 -6.33333 18.125
      vertex -0.5 6.33333 17.625
      vertex -0.5 -6.33333 17.625
    endloop
  endfacet
endsolid OpenSCAD_Model
